<?xml version="1.0" encoding="utf-8" standalone="no"?>
<!DOCTYPE svg PUBLIC "-//W3C//DTD SVG 1.1//EN"
  "http://www.w3.org/Graphics/SVG/1.1/DTD/svg11.dtd">
<svg height="318.63325pt" version="1.1" viewBox="0 0 423.353437 318.63325" width="423.353437pt" xmlns="http://www.w3.org/2000/svg" xmlns:xlink="http://www.w3.org/1999/xlink">
 <metadata>
  <rdf:RDF xmlns:cc="http://creativecommons.org/ns#" xmlns:dc="http://purl.org/dc/elements/1.1/" xmlns:rdf="http://www.w3.org/1999/02/22-rdf-syntax-ns#">
   <cc:Work>
    <dc:type rdf:resource="http://purl.org/dc/dcmitype/StillImage"/>
    <dc:date>2023-02-16T09:04:20.976061</dc:date>
    <dc:format>image/svg+xml</dc:format>
    <dc:creator>
     <cc:Agent>
      <dc:title>Matplotlib v3.4.2, https://matplotlib.org/</dc:title>
     </cc:Agent>
    </dc:creator>
   </cc:Work>
  </rdf:RDF>
 </metadata>
 <defs>
  <style type="text/css">*{stroke-linecap:butt;stroke-linejoin:round;}</style>
 </defs>
 <g id="figure_1">
  <g id="patch_1">
   <path d="M 0 318.63325 
L 423.353437 318.63325 
L 423.353437 0 
L 0 0 
z
" style="fill:none;"/>
  </g>
  <g id="axes_1">
   <g id="patch_2">
    <path d="M 59.033438 273.312 
L 416.153438 273.312 
L 416.153438 7.2 
L 59.033438 7.2 
z
" style="fill:none;"/>
   </g>
   <g id="matplotlib.axis_1">
    <g id="xtick_1">
     <g id="line2d_1">
      <defs>
       <path d="M 0 0 
L 0 3.5 
" id="m3f7f82d3a2" style="stroke:#000000;stroke-width:0.8;"/>
      </defs>
      <g>
       <use style="stroke:#000000;stroke-width:0.8;" x="107.063606" xlink:href="#m3f7f82d3a2" y="273.312"/>
      </g>
     </g>
     <g id="text_1">
      <!-- 200 -->
      <g transform="translate(97.519856 287.910438)scale(0.1 -0.1)">
       <defs>
        <path d="M 1228 531 
L 3431 531 
L 3431 0 
L 469 0 
L 469 531 
Q 828 903 1448 1529 
Q 2069 2156 2228 2338 
Q 2531 2678 2651 2914 
Q 2772 3150 2772 3378 
Q 2772 3750 2511 3984 
Q 2250 4219 1831 4219 
Q 1534 4219 1204 4116 
Q 875 4013 500 3803 
L 500 4441 
Q 881 4594 1212 4672 
Q 1544 4750 1819 4750 
Q 2544 4750 2975 4387 
Q 3406 4025 3406 3419 
Q 3406 3131 3298 2873 
Q 3191 2616 2906 2266 
Q 2828 2175 2409 1742 
Q 1991 1309 1228 531 
z
" id="DejaVuSans-32" transform="scale(0.015625)"/>
        <path d="M 2034 4250 
Q 1547 4250 1301 3770 
Q 1056 3291 1056 2328 
Q 1056 1369 1301 889 
Q 1547 409 2034 409 
Q 2525 409 2770 889 
Q 3016 1369 3016 2328 
Q 3016 3291 2770 3770 
Q 2525 4250 2034 4250 
z
M 2034 4750 
Q 2819 4750 3233 4129 
Q 3647 3509 3647 2328 
Q 3647 1150 3233 529 
Q 2819 -91 2034 -91 
Q 1250 -91 836 529 
Q 422 1150 422 2328 
Q 422 3509 836 4129 
Q 1250 4750 2034 4750 
z
" id="DejaVuSans-30" transform="scale(0.015625)"/>
       </defs>
       <use xlink:href="#DejaVuSans-32"/>
       <use x="63.623047" xlink:href="#DejaVuSans-30"/>
       <use x="127.246094" xlink:href="#DejaVuSans-30"/>
      </g>
     </g>
    </g>
    <g id="xtick_2">
     <g id="line2d_2">
      <g>
       <use style="stroke:#000000;stroke-width:0.8;" x="160.504683" xlink:href="#m3f7f82d3a2" y="273.312"/>
      </g>
     </g>
     <g id="text_2">
      <!-- 400 -->
      <g transform="translate(150.960933 287.910438)scale(0.1 -0.1)">
       <defs>
        <path d="M 2419 4116 
L 825 1625 
L 2419 1625 
L 2419 4116 
z
M 2253 4666 
L 3047 4666 
L 3047 1625 
L 3713 1625 
L 3713 1100 
L 3047 1100 
L 3047 0 
L 2419 0 
L 2419 1100 
L 313 1100 
L 313 1709 
L 2253 4666 
z
" id="DejaVuSans-34" transform="scale(0.015625)"/>
       </defs>
       <use xlink:href="#DejaVuSans-34"/>
       <use x="63.623047" xlink:href="#DejaVuSans-30"/>
       <use x="127.246094" xlink:href="#DejaVuSans-30"/>
      </g>
     </g>
    </g>
    <g id="xtick_3">
     <g id="line2d_3">
      <g>
       <use style="stroke:#000000;stroke-width:0.8;" x="213.945761" xlink:href="#m3f7f82d3a2" y="273.312"/>
      </g>
     </g>
     <g id="text_3">
      <!-- 600 -->
      <g transform="translate(204.402011 287.910438)scale(0.1 -0.1)">
       <defs>
        <path d="M 2113 2584 
Q 1688 2584 1439 2293 
Q 1191 2003 1191 1497 
Q 1191 994 1439 701 
Q 1688 409 2113 409 
Q 2538 409 2786 701 
Q 3034 994 3034 1497 
Q 3034 2003 2786 2293 
Q 2538 2584 2113 2584 
z
M 3366 4563 
L 3366 3988 
Q 3128 4100 2886 4159 
Q 2644 4219 2406 4219 
Q 1781 4219 1451 3797 
Q 1122 3375 1075 2522 
Q 1259 2794 1537 2939 
Q 1816 3084 2150 3084 
Q 2853 3084 3261 2657 
Q 3669 2231 3669 1497 
Q 3669 778 3244 343 
Q 2819 -91 2113 -91 
Q 1303 -91 875 529 
Q 447 1150 447 2328 
Q 447 3434 972 4092 
Q 1497 4750 2381 4750 
Q 2619 4750 2861 4703 
Q 3103 4656 3366 4563 
z
" id="DejaVuSans-36" transform="scale(0.015625)"/>
       </defs>
       <use xlink:href="#DejaVuSans-36"/>
       <use x="63.623047" xlink:href="#DejaVuSans-30"/>
       <use x="127.246094" xlink:href="#DejaVuSans-30"/>
      </g>
     </g>
    </g>
    <g id="xtick_4">
     <g id="line2d_4">
      <g>
       <use style="stroke:#000000;stroke-width:0.8;" x="267.386838" xlink:href="#m3f7f82d3a2" y="273.312"/>
      </g>
     </g>
     <g id="text_4">
      <!-- 800 -->
      <g transform="translate(257.843088 287.910438)scale(0.1 -0.1)">
       <defs>
        <path d="M 2034 2216 
Q 1584 2216 1326 1975 
Q 1069 1734 1069 1313 
Q 1069 891 1326 650 
Q 1584 409 2034 409 
Q 2484 409 2743 651 
Q 3003 894 3003 1313 
Q 3003 1734 2745 1975 
Q 2488 2216 2034 2216 
z
M 1403 2484 
Q 997 2584 770 2862 
Q 544 3141 544 3541 
Q 544 4100 942 4425 
Q 1341 4750 2034 4750 
Q 2731 4750 3128 4425 
Q 3525 4100 3525 3541 
Q 3525 3141 3298 2862 
Q 3072 2584 2669 2484 
Q 3125 2378 3379 2068 
Q 3634 1759 3634 1313 
Q 3634 634 3220 271 
Q 2806 -91 2034 -91 
Q 1263 -91 848 271 
Q 434 634 434 1313 
Q 434 1759 690 2068 
Q 947 2378 1403 2484 
z
M 1172 3481 
Q 1172 3119 1398 2916 
Q 1625 2713 2034 2713 
Q 2441 2713 2670 2916 
Q 2900 3119 2900 3481 
Q 2900 3844 2670 4047 
Q 2441 4250 2034 4250 
Q 1625 4250 1398 4047 
Q 1172 3844 1172 3481 
z
" id="DejaVuSans-38" transform="scale(0.015625)"/>
       </defs>
       <use xlink:href="#DejaVuSans-38"/>
       <use x="63.623047" xlink:href="#DejaVuSans-30"/>
       <use x="127.246094" xlink:href="#DejaVuSans-30"/>
      </g>
     </g>
    </g>
    <g id="xtick_5">
     <g id="line2d_5">
      <g>
       <use style="stroke:#000000;stroke-width:0.8;" x="320.827916" xlink:href="#m3f7f82d3a2" y="273.312"/>
      </g>
     </g>
     <g id="text_5">
      <!-- 1000 -->
      <g transform="translate(308.102916 287.910438)scale(0.1 -0.1)">
       <defs>
        <path d="M 794 531 
L 1825 531 
L 1825 4091 
L 703 3866 
L 703 4441 
L 1819 4666 
L 2450 4666 
L 2450 531 
L 3481 531 
L 3481 0 
L 794 0 
L 794 531 
z
" id="DejaVuSans-31" transform="scale(0.015625)"/>
       </defs>
       <use xlink:href="#DejaVuSans-31"/>
       <use x="63.623047" xlink:href="#DejaVuSans-30"/>
       <use x="127.246094" xlink:href="#DejaVuSans-30"/>
       <use x="190.869141" xlink:href="#DejaVuSans-30"/>
      </g>
     </g>
    </g>
    <g id="xtick_6">
     <g id="line2d_6">
      <g>
       <use style="stroke:#000000;stroke-width:0.8;" x="374.268993" xlink:href="#m3f7f82d3a2" y="273.312"/>
      </g>
     </g>
     <g id="text_6">
      <!-- 1200 -->
      <g transform="translate(361.543993 287.910438)scale(0.1 -0.1)">
       <use xlink:href="#DejaVuSans-31"/>
       <use x="63.623047" xlink:href="#DejaVuSans-32"/>
       <use x="127.246094" xlink:href="#DejaVuSans-30"/>
       <use x="190.869141" xlink:href="#DejaVuSans-30"/>
      </g>
     </g>
    </g>
    <g id="text_7">
     <!-- N(节点个数) -->
     <g transform="translate(189.253594 308.930125)scale(0.18 -0.18)">
      <defs>
       <path d="M 1114 902 
Q 1114 742 1152 688 
Q 1190 634 1312 621 
L 1818 557 
L 1818 365 
Q 1434 384 1050 384 
Q 666 384 160 365 
L 160 557 
L 512 621 
Q 730 659 790 710 
Q 851 762 851 902 
L 851 3482 
Q 851 3776 787 3920 
Q 723 4064 544 4096 
L 166 4154 
L 166 4384 
L 1082 4384 
Q 1229 4384 1321 4384 
Q 1414 4384 1481 4371 
Q 1549 4358 1600 4323 
Q 1651 4288 1722 4218 
L 4096 1709 
L 4096 3802 
Q 4096 3974 4041 4048 
Q 3987 4122 3866 4134 
L 3386 4198 
L 3386 4403 
Q 3565 4384 4077 4384 
Q 4333 4384 4560 4387 
Q 4787 4390 4877 4403 
L 4877 4198 
L 4499 4173 
Q 4390 4160 4368 4067 
Q 4346 3974 4346 3802 
L 4346 301 
L 4192 301 
L 1114 3578 
L 1114 902 
z
" id="STSongti-SC-Black-4e" transform="scale(0.015625)"/>
       <path d="M 1843 4781 
L 1926 4614 
Q 1606 4326 1411 3977 
Q 1216 3629 1107 3270 
Q 998 2912 960 2566 
Q 922 2221 922 1946 
Q 922 1664 970 1309 
Q 1018 954 1130 582 
Q 1242 211 1430 -134 
Q 1619 -480 1907 -730 
L 1830 -877 
Q 1504 -640 1216 -349 
Q 928 -58 707 294 
Q 486 646 358 1062 
Q 230 1478 230 1971 
Q 230 2464 358 2883 
Q 486 3302 707 3651 
Q 928 4000 1222 4281 
Q 1517 4563 1843 4781 
z
" id="STSongti-SC-Black-28" transform="scale(0.015625)"/>
       <path d="M 2656 4141 
L 3757 4141 
L 3757 4851 
Q 3757 4992 3744 5190 
Q 4134 5158 4364 5120 
Q 4595 5082 4640 5050 
Q 4685 5018 4685 4979 
Q 4685 4902 4531 4838 
L 4531 4141 
L 5011 4141 
Q 5120 4326 5235 4496 
Q 5350 4666 5382 4694 
Q 5414 4723 5446 4723 
Q 5523 4723 5852 4422 
Q 6182 4122 6182 4026 
Q 6182 3930 6016 3930 
L 4531 3930 
L 4544 3354 
Q 4544 3290 4502 3258 
Q 4461 3226 4297 3181 
Q 4134 3136 3945 3136 
Q 3757 3136 3757 3283 
L 3757 3930 
L 2656 3930 
L 2656 3347 
Q 2656 3277 2605 3235 
Q 2554 3194 2390 3158 
Q 2227 3123 2060 3123 
Q 1894 3123 1894 3219 
Q 1894 3226 1904 3405 
Q 1914 3584 1914 3930 
L 749 3930 
Q 621 3930 518 3859 
L 352 4160 
Q 506 4141 672 4141 
L 1914 4141 
L 1914 4749 
Q 1914 4960 1894 5216 
Q 2240 5184 2473 5139 
Q 2707 5094 2761 5056 
Q 2816 5018 2816 4973 
Q 2816 4890 2656 4832 
L 2656 4141 
z
M 2400 2650 
L 1152 2650 
Q 1024 2650 922 2579 
L 755 2880 
Q 909 2861 1075 2861 
L 4525 2861 
Q 4704 3213 4758 3283 
Q 4813 3354 4864 3354 
Q 4915 3354 5171 3190 
Q 5427 3027 5580 2905 
Q 5734 2784 5734 2714 
Q 5734 2598 5478 2515 
Q 5427 1254 5376 892 
Q 5325 531 5033 358 
Q 4742 186 4320 186 
Q 4224 186 4185 218 
Q 4147 250 4108 422 
Q 4070 595 3891 704 
Q 3712 813 3206 915 
L 3206 -442 
Q 3206 -512 3164 -550 
Q 3123 -589 2928 -640 
Q 2733 -691 2509 -691 
Q 2374 -691 2374 -602 
L 2387 -301 
Q 2400 13 2400 269 
L 2400 2650 
z
M 3206 986 
Q 3411 973 3584 973 
Q 4390 973 4518 1171 
Q 4646 1370 4627 2650 
L 3302 2650 
Q 3322 2630 3322 2598 
Q 3322 2566 3206 2502 
L 3206 986 
z
" id="STSongti-SC-Black-8282" transform="scale(0.015625)"/>
       <path d="M 3578 4275 
L 4730 4275 
Q 5005 4730 5043 4778 
Q 5082 4826 5123 4826 
Q 5165 4826 5302 4720 
Q 5440 4614 5600 4473 
Q 5760 4333 5817 4269 
Q 5875 4205 5875 4154 
Q 5875 4064 5722 4064 
L 3578 4064 
L 3578 3194 
L 4358 3194 
Q 4416 3290 4499 3411 
Q 4582 3533 4608 3552 
Q 4634 3571 4659 3571 
Q 4749 3571 5113 3308 
Q 5478 3046 5478 2953 
Q 5478 2861 5248 2810 
L 5248 2003 
Q 5248 1664 5254 1568 
L 5261 1389 
Q 5261 1357 5238 1331 
Q 5216 1306 5107 1251 
Q 4998 1197 4784 1165 
Q 4570 1133 4522 1133 
Q 4474 1133 4461 1165 
Q 4448 1197 4448 1280 
L 4448 1478 
L 2061 1478 
L 2061 1280 
Q 2061 1229 2032 1203 
Q 2003 1178 1881 1130 
Q 1760 1082 1577 1062 
Q 1395 1043 1347 1043 
Q 1299 1043 1299 1094 
L 1312 1376 
Q 1325 1568 1325 1728 
L 1325 2925 
Q 1325 3206 1306 3482 
Q 1875 3334 2170 3194 
L 2816 3194 
L 2816 4755 
Q 2816 5075 2803 5325 
Q 3296 5306 3536 5267 
Q 3776 5229 3776 5139 
Q 3776 5050 3578 4973 
L 3578 4275 
z
M 4448 1690 
L 4448 2982 
L 2272 2982 
Q 2195 2918 2061 2880 
L 2061 1690 
L 4448 1690 
z
M 1222 966 
Q 1274 966 1347 659 
Q 1421 352 1421 141 
Q 1421 -256 1203 -470 
Q 986 -685 768 -685 
Q 550 -685 428 -585 
Q 307 -486 307 -320 
Q 307 -90 506 26 
Q 819 205 947 304 
Q 1075 403 1120 518 
Q 1165 634 1184 877 
Q 1197 966 1222 966 
z
M 4678 966 
Q 4864 966 5283 822 
Q 5702 678 5929 448 
Q 6157 218 6157 -12 
Q 6157 -243 6006 -406 
Q 5856 -570 5632 -570 
Q 5517 -570 5433 -509 
Q 5350 -448 5318 -355 
Q 5286 -262 5286 -77 
Q 5286 211 5132 467 
Q 4979 723 4698 890 
Q 4627 928 4627 947 
Q 4627 966 4678 966 
z
M 2016 934 
Q 2093 934 2390 790 
Q 2688 646 2867 435 
Q 3046 224 3046 -3 
Q 3046 -230 2905 -371 
Q 2765 -512 2595 -512 
Q 2426 -512 2330 -422 
Q 2234 -333 2234 -186 
Q 2234 -134 2259 -22 
Q 2285 90 2285 230 
Q 2285 614 2022 858 
Q 1984 896 1984 915 
Q 1984 934 2016 934 
z
M 3328 922 
Q 3424 922 3766 803 
Q 4109 685 4291 489 
Q 4474 294 4474 26 
Q 4474 -186 4336 -330 
Q 4198 -474 4012 -474 
Q 3827 -474 3734 -358 
Q 3642 -243 3661 -80 
Q 3680 83 3680 179 
Q 3680 397 3606 544 
Q 3533 691 3414 787 
Q 3296 883 3296 902 
Q 3296 922 3328 922 
z
" id="STSongti-SC-Black-70b9" transform="scale(0.015625)"/>
       <path d="M 3450 4512 
Q 2918 3699 2201 3094 
Q 1485 2490 893 2192 
Q 301 1894 211 1894 
Q 198 1894 198 1901 
Q 198 1926 275 1978 
Q 1286 2669 1884 3485 
Q 2483 4301 2765 5306 
Q 3149 5216 3443 5133 
Q 3738 5050 3824 5008 
Q 3910 4966 3910 4918 
Q 3910 4870 3814 4838 
Q 3718 4806 3565 4640 
Q 3885 4051 4617 3616 
Q 5350 3181 6374 2976 
Q 6445 2963 6445 2931 
Q 6445 2899 6368 2880 
Q 6163 2829 5971 2627 
Q 5779 2426 5664 2170 
Q 5645 2125 5606 2125 
Q 5517 2125 4893 2531 
Q 4269 2938 3936 3414 
Q 3603 3891 3450 4512 
z
M 2803 3341 
Q 3808 3245 3808 3117 
Q 3808 3059 3654 2970 
L 3654 147 
Q 3654 -64 3661 -301 
L 3674 -518 
Q 3674 -563 3632 -608 
Q 3590 -653 3395 -697 
Q 3200 -742 2998 -742 
Q 2797 -742 2797 -621 
L 2810 -371 
Q 2816 -115 2816 205 
L 2816 2771 
Q 2816 3091 2803 3341 
z
" id="STSongti-SC-Black-4e2a" transform="scale(0.015625)"/>
       <path d="M 2330 4051 
Q 2566 4378 2810 4973 
Q 3059 4877 3302 4729 
Q 3546 4582 3546 4515 
Q 3546 4448 3414 4435 
Q 3283 4422 3120 4336 
Q 2957 4250 2330 3827 
L 2330 3738 
L 2784 3738 
Q 3014 4141 3091 4141 
Q 3149 4141 3385 3920 
Q 3622 3699 3622 3612 
Q 3622 3526 3456 3526 
L 2330 3526 
L 2330 3373 
Q 2790 3290 3033 3120 
Q 3277 2950 3277 2771 
Q 3277 2592 3165 2467 
Q 3053 2342 2928 2342 
Q 2803 2342 2736 2406 
Q 2669 2470 2630 2637 
Q 2560 2989 2330 3226 
L 2330 3053 
Q 2330 2842 2342 2605 
L 2349 2387 
Q 2349 2336 2320 2313 
Q 2291 2291 2118 2208 
Q 2285 2131 2304 2102 
Q 2323 2074 2323 2054 
Q 2323 1990 2227 1971 
Q 2150 1952 2010 1728 
L 2381 1728 
Q 2496 1939 2544 2003 
Q 2592 2067 2637 2067 
Q 2682 2067 3066 1843 
Q 3834 3072 3898 5261 
Q 4294 5210 4569 5142 
Q 4845 5075 4899 5043 
Q 4954 5011 4954 4966 
Q 4954 4909 4880 4873 
Q 4806 4838 4761 4742 
Q 4717 4646 4617 4352 
Q 4518 4058 4346 3648 
L 5184 3648 
Q 5466 4192 5552 4192 
Q 5638 4192 5856 4009 
Q 6074 3827 6182 3721 
Q 6291 3616 6291 3539 
Q 6291 3437 6170 3437 
L 5466 3437 
Q 5811 3366 5811 3264 
Q 5811 3206 5737 3171 
Q 5664 3136 5622 3024 
Q 5581 2912 5501 2541 
Q 5421 2170 5232 1674 
Q 5043 1178 4851 890 
Q 5325 454 6246 141 
Q 6323 115 6323 83 
Q 6323 51 6214 32 
Q 6106 13 5872 -179 
Q 5638 -371 5517 -550 
Q 5478 -608 5433 -608 
Q 5389 -608 5347 -582 
Q 5306 -557 5088 -361 
Q 4870 -166 4700 19 
Q 4531 205 4403 384 
Q 3866 -141 3232 -441 
Q 2598 -742 2490 -742 
Q 2458 -742 2458 -716 
Q 2458 -691 2534 -646 
Q 3693 0 4166 762 
Q 3808 1446 3776 2566 
Q 3520 2163 3168 1773 
Q 3398 1651 3398 1568 
Q 3398 1485 3299 1449 
Q 3200 1414 3165 1379 
Q 3130 1344 3024 1123 
Q 2918 902 2746 659 
Q 2854 621 3014 525 
Q 3174 429 3225 304 
Q 3277 179 3277 60 
Q 3277 -58 3158 -170 
Q 3040 -282 2902 -282 
Q 2765 -282 2592 -109 
Q 2419 64 2285 173 
Q 1830 -192 1126 -419 
Q 422 -646 307 -646 
Q 262 -646 262 -624 
Q 262 -602 333 -576 
Q 1306 -198 1862 448 
Q 1498 634 787 800 
Q 1011 1184 1178 1517 
L 755 1517 
Q 627 1517 525 1446 
L 352 1747 
Q 506 1728 672 1728 
L 1280 1728 
Q 1376 1920 1574 2394 
L 1645 2374 
L 1645 3021 
Q 1325 2554 848 2214 
Q 371 1875 288 1875 
Q 275 1875 275 1888 
Q 275 1914 358 1997 
Q 960 2560 1299 3526 
L 755 3526 
Q 589 3526 480 3494 
L 371 3770 
Q 506 3738 691 3738 
L 1645 3738 
L 1645 4698 
Q 1645 5018 1632 5267 
Q 1978 5235 2179 5196 
Q 2381 5158 2419 5129 
Q 2458 5101 2458 5053 
Q 2458 5005 2330 4954 
L 2330 4051 
z
M 4851 3437 
L 4250 3437 
Q 4141 3181 3942 2842 
Q 4058 1952 4454 1357 
Q 4787 2176 4851 3437 
z
M 1888 1517 
L 1549 928 
Q 1850 902 2144 838 
Q 2330 1165 2413 1517 
L 1888 1517 
z
M 563 4806 
Q 947 4806 1238 4646 
Q 1530 4486 1530 4294 
Q 1530 4102 1437 3984 
Q 1344 3866 1203 3866 
Q 1062 3866 998 3926 
Q 934 3987 922 4134 
Q 883 4518 557 4742 
Q 512 4774 512 4790 
Q 512 4806 563 4806 
z
" id="STSongti-SC-Black-6570" transform="scale(0.015625)"/>
       <path d="M 186 4781 
Q 512 4563 806 4281 
Q 1101 4000 1321 3651 
Q 1542 3302 1670 2883 
Q 1798 2464 1798 1971 
Q 1798 1478 1670 1062 
Q 1542 646 1321 294 
Q 1101 -58 813 -349 
Q 525 -640 198 -877 
L 122 -730 
Q 410 -480 598 -134 
Q 787 211 899 582 
Q 1011 954 1059 1309 
Q 1107 1664 1107 1946 
Q 1107 2221 1068 2566 
Q 1030 2912 921 3270 
Q 813 3629 614 3977 
Q 416 4326 102 4614 
L 186 4781 
z
" id="STSongti-SC-Black-29" transform="scale(0.015625)"/>
      </defs>
      <use xlink:href="#STSongti-SC-Black-4e"/>
      <use x="78.699982" xlink:href="#STSongti-SC-Black-28"/>
      <use x="107.899979" xlink:href="#STSongti-SC-Black-8282"/>
      <use x="207.899963" xlink:href="#STSongti-SC-Black-70b9"/>
      <use x="307.899948" xlink:href="#STSongti-SC-Black-4e2a"/>
      <use x="407.899933" xlink:href="#STSongti-SC-Black-6570"/>
      <use x="507.899918" xlink:href="#STSongti-SC-Black-29"/>
     </g>
    </g>
   </g>
   <g id="matplotlib.axis_2">
    <g id="ytick_1">
     <g id="line2d_7">
      <defs>
       <path d="M 0 0 
L -3.5 0 
" id="m6290087447" style="stroke:#000000;stroke-width:0.8;"/>
      </defs>
      <g>
       <use style="stroke:#000000;stroke-width:0.8;" x="59.033438" xlink:href="#m6290087447" y="240.873176"/>
      </g>
     </g>
     <g id="text_8">
      <!-- $\mathdefault{10^{-1}}$ -->
      <g transform="translate(28.533438 244.672395)scale(0.1 -0.1)">
       <defs>
        <path d="M 678 2272 
L 4684 2272 
L 4684 1741 
L 678 1741 
L 678 2272 
z
" id="DejaVuSans-2212" transform="scale(0.015625)"/>
       </defs>
       <use transform="translate(0 0.684375)" xlink:href="#DejaVuSans-31"/>
       <use transform="translate(63.623047 0.684375)" xlink:href="#DejaVuSans-30"/>
       <use transform="translate(128.203125 38.965625)scale(0.7)" xlink:href="#DejaVuSans-2212"/>
       <use transform="translate(186.855469 38.965625)scale(0.7)" xlink:href="#DejaVuSans-31"/>
      </g>
     </g>
    </g>
    <g id="ytick_2">
     <g id="line2d_8">
      <g>
       <use style="stroke:#000000;stroke-width:0.8;" x="59.033438" xlink:href="#m6290087447" y="188.26468"/>
      </g>
     </g>
     <g id="text_9">
      <!-- $\mathdefault{10^{0}}$ -->
      <g transform="translate(34.433438 192.063899)scale(0.1 -0.1)">
       <use transform="translate(0 0.765625)" xlink:href="#DejaVuSans-31"/>
       <use transform="translate(63.623047 0.765625)" xlink:href="#DejaVuSans-30"/>
       <use transform="translate(128.203125 39.046875)scale(0.7)" xlink:href="#DejaVuSans-30"/>
      </g>
     </g>
    </g>
    <g id="ytick_3">
     <g id="line2d_9">
      <g>
       <use style="stroke:#000000;stroke-width:0.8;" x="59.033438" xlink:href="#m6290087447" y="135.656185"/>
      </g>
     </g>
     <g id="text_10">
      <!-- $\mathdefault{10^{1}}$ -->
      <g transform="translate(34.433438 139.455404)scale(0.1 -0.1)">
       <use transform="translate(0 0.684375)" xlink:href="#DejaVuSans-31"/>
       <use transform="translate(63.623047 0.684375)" xlink:href="#DejaVuSans-30"/>
       <use transform="translate(128.203125 38.965625)scale(0.7)" xlink:href="#DejaVuSans-31"/>
      </g>
     </g>
    </g>
    <g id="ytick_4">
     <g id="line2d_10">
      <g>
       <use style="stroke:#000000;stroke-width:0.8;" x="59.033438" xlink:href="#m6290087447" y="83.047689"/>
      </g>
     </g>
     <g id="text_11">
      <!-- $\mathdefault{10^{2}}$ -->
      <g transform="translate(34.433438 86.846908)scale(0.1 -0.1)">
       <use transform="translate(0 0.765625)" xlink:href="#DejaVuSans-31"/>
       <use transform="translate(63.623047 0.765625)" xlink:href="#DejaVuSans-30"/>
       <use transform="translate(128.203125 39.046875)scale(0.7)" xlink:href="#DejaVuSans-32"/>
      </g>
     </g>
    </g>
    <g id="ytick_5">
     <g id="line2d_11">
      <g>
       <use style="stroke:#000000;stroke-width:0.8;" x="59.033438" xlink:href="#m6290087447" y="30.439194"/>
      </g>
     </g>
     <g id="text_12">
      <!-- $\mathdefault{10^{3}}$ -->
      <g transform="translate(34.433438 34.238413)scale(0.1 -0.1)">
       <defs>
        <path d="M 2597 2516 
Q 3050 2419 3304 2112 
Q 3559 1806 3559 1356 
Q 3559 666 3084 287 
Q 2609 -91 1734 -91 
Q 1441 -91 1130 -33 
Q 819 25 488 141 
L 488 750 
Q 750 597 1062 519 
Q 1375 441 1716 441 
Q 2309 441 2620 675 
Q 2931 909 2931 1356 
Q 2931 1769 2642 2001 
Q 2353 2234 1838 2234 
L 1294 2234 
L 1294 2753 
L 1863 2753 
Q 2328 2753 2575 2939 
Q 2822 3125 2822 3475 
Q 2822 3834 2567 4026 
Q 2313 4219 1838 4219 
Q 1578 4219 1281 4162 
Q 984 4106 628 3988 
L 628 4550 
Q 988 4650 1302 4700 
Q 1616 4750 1894 4750 
Q 2613 4750 3031 4423 
Q 3450 4097 3450 3541 
Q 3450 3153 3228 2886 
Q 3006 2619 2597 2516 
z
" id="DejaVuSans-33" transform="scale(0.015625)"/>
       </defs>
       <use transform="translate(0 0.765625)" xlink:href="#DejaVuSans-31"/>
       <use transform="translate(63.623047 0.765625)" xlink:href="#DejaVuSans-30"/>
       <use transform="translate(128.203125 39.046875)scale(0.7)" xlink:href="#DejaVuSans-33"/>
      </g>
     </g>
    </g>
    <g id="ytick_6">
     <g id="line2d_12">
      <defs>
       <path d="M 0 0 
L -2 0 
" id="m5718fb0afa" style="stroke:#000000;stroke-width:0.6;"/>
      </defs>
      <g>
       <use style="stroke:#000000;stroke-width:0.6;" x="59.033438" xlink:href="#m5718fb0afa" y="268.38104"/>
      </g>
     </g>
    </g>
    <g id="ytick_7">
     <g id="line2d_13">
      <g>
       <use style="stroke:#000000;stroke-width:0.6;" x="59.033438" xlink:href="#m5718fb0afa" y="261.808201"/>
      </g>
     </g>
    </g>
    <g id="ytick_8">
     <g id="line2d_14">
      <g>
       <use style="stroke:#000000;stroke-width:0.6;" x="59.033438" xlink:href="#m5718fb0afa" y="256.709911"/>
      </g>
     </g>
    </g>
    <g id="ytick_9">
     <g id="line2d_15">
      <g>
       <use style="stroke:#000000;stroke-width:0.6;" x="59.033438" xlink:href="#m5718fb0afa" y="252.544305"/>
      </g>
     </g>
    </g>
    <g id="ytick_10">
     <g id="line2d_16">
      <g>
       <use style="stroke:#000000;stroke-width:0.6;" x="59.033438" xlink:href="#m5718fb0afa" y="249.022335"/>
      </g>
     </g>
    </g>
    <g id="ytick_11">
     <g id="line2d_17">
      <g>
       <use style="stroke:#000000;stroke-width:0.6;" x="59.033438" xlink:href="#m5718fb0afa" y="245.971466"/>
      </g>
     </g>
    </g>
    <g id="ytick_12">
     <g id="line2d_18">
      <g>
       <use style="stroke:#000000;stroke-width:0.6;" x="59.033438" xlink:href="#m5718fb0afa" y="243.280408"/>
      </g>
     </g>
    </g>
    <g id="ytick_13">
     <g id="line2d_19">
      <g>
       <use style="stroke:#000000;stroke-width:0.6;" x="59.033438" xlink:href="#m5718fb0afa" y="225.036441"/>
      </g>
     </g>
    </g>
    <g id="ytick_14">
     <g id="line2d_20">
      <g>
       <use style="stroke:#000000;stroke-width:0.6;" x="59.033438" xlink:href="#m5718fb0afa" y="215.772544"/>
      </g>
     </g>
    </g>
    <g id="ytick_15">
     <g id="line2d_21">
      <g>
       <use style="stroke:#000000;stroke-width:0.6;" x="59.033438" xlink:href="#m5718fb0afa" y="209.199705"/>
      </g>
     </g>
    </g>
    <g id="ytick_16">
     <g id="line2d_22">
      <g>
       <use style="stroke:#000000;stroke-width:0.6;" x="59.033438" xlink:href="#m5718fb0afa" y="204.101415"/>
      </g>
     </g>
    </g>
    <g id="ytick_17">
     <g id="line2d_23">
      <g>
       <use style="stroke:#000000;stroke-width:0.6;" x="59.033438" xlink:href="#m5718fb0afa" y="199.935809"/>
      </g>
     </g>
    </g>
    <g id="ytick_18">
     <g id="line2d_24">
      <g>
       <use style="stroke:#000000;stroke-width:0.6;" x="59.033438" xlink:href="#m5718fb0afa" y="196.413839"/>
      </g>
     </g>
    </g>
    <g id="ytick_19">
     <g id="line2d_25">
      <g>
       <use style="stroke:#000000;stroke-width:0.6;" x="59.033438" xlink:href="#m5718fb0afa" y="193.36297"/>
      </g>
     </g>
    </g>
    <g id="ytick_20">
     <g id="line2d_26">
      <g>
       <use style="stroke:#000000;stroke-width:0.6;" x="59.033438" xlink:href="#m5718fb0afa" y="190.671913"/>
      </g>
     </g>
    </g>
    <g id="ytick_21">
     <g id="line2d_27">
      <g>
       <use style="stroke:#000000;stroke-width:0.6;" x="59.033438" xlink:href="#m5718fb0afa" y="172.427945"/>
      </g>
     </g>
    </g>
    <g id="ytick_22">
     <g id="line2d_28">
      <g>
       <use style="stroke:#000000;stroke-width:0.6;" x="59.033438" xlink:href="#m5718fb0afa" y="163.164049"/>
      </g>
     </g>
    </g>
    <g id="ytick_23">
     <g id="line2d_29">
      <g>
       <use style="stroke:#000000;stroke-width:0.6;" x="59.033438" xlink:href="#m5718fb0afa" y="156.59121"/>
      </g>
     </g>
    </g>
    <g id="ytick_24">
     <g id="line2d_30">
      <g>
       <use style="stroke:#000000;stroke-width:0.6;" x="59.033438" xlink:href="#m5718fb0afa" y="151.49292"/>
      </g>
     </g>
    </g>
    <g id="ytick_25">
     <g id="line2d_31">
      <g>
       <use style="stroke:#000000;stroke-width:0.6;" x="59.033438" xlink:href="#m5718fb0afa" y="147.327314"/>
      </g>
     </g>
    </g>
    <g id="ytick_26">
     <g id="line2d_32">
      <g>
       <use style="stroke:#000000;stroke-width:0.6;" x="59.033438" xlink:href="#m5718fb0afa" y="143.805344"/>
      </g>
     </g>
    </g>
    <g id="ytick_27">
     <g id="line2d_33">
      <g>
       <use style="stroke:#000000;stroke-width:0.6;" x="59.033438" xlink:href="#m5718fb0afa" y="140.754475"/>
      </g>
     </g>
    </g>
    <g id="ytick_28">
     <g id="line2d_34">
      <g>
       <use style="stroke:#000000;stroke-width:0.6;" x="59.033438" xlink:href="#m5718fb0afa" y="138.063418"/>
      </g>
     </g>
    </g>
    <g id="ytick_29">
     <g id="line2d_35">
      <g>
       <use style="stroke:#000000;stroke-width:0.6;" x="59.033438" xlink:href="#m5718fb0afa" y="119.81945"/>
      </g>
     </g>
    </g>
    <g id="ytick_30">
     <g id="line2d_36">
      <g>
       <use style="stroke:#000000;stroke-width:0.6;" x="59.033438" xlink:href="#m5718fb0afa" y="110.555554"/>
      </g>
     </g>
    </g>
    <g id="ytick_31">
     <g id="line2d_37">
      <g>
       <use style="stroke:#000000;stroke-width:0.6;" x="59.033438" xlink:href="#m5718fb0afa" y="103.982715"/>
      </g>
     </g>
    </g>
    <g id="ytick_32">
     <g id="line2d_38">
      <g>
       <use style="stroke:#000000;stroke-width:0.6;" x="59.033438" xlink:href="#m5718fb0afa" y="98.884425"/>
      </g>
     </g>
    </g>
    <g id="ytick_33">
     <g id="line2d_39">
      <g>
       <use style="stroke:#000000;stroke-width:0.6;" x="59.033438" xlink:href="#m5718fb0afa" y="94.718818"/>
      </g>
     </g>
    </g>
    <g id="ytick_34">
     <g id="line2d_40">
      <g>
       <use style="stroke:#000000;stroke-width:0.6;" x="59.033438" xlink:href="#m5718fb0afa" y="91.196849"/>
      </g>
     </g>
    </g>
    <g id="ytick_35">
     <g id="line2d_41">
      <g>
       <use style="stroke:#000000;stroke-width:0.6;" x="59.033438" xlink:href="#m5718fb0afa" y="88.145979"/>
      </g>
     </g>
    </g>
    <g id="ytick_36">
     <g id="line2d_42">
      <g>
       <use style="stroke:#000000;stroke-width:0.6;" x="59.033438" xlink:href="#m5718fb0afa" y="85.454922"/>
      </g>
     </g>
    </g>
    <g id="ytick_37">
     <g id="line2d_43">
      <g>
       <use style="stroke:#000000;stroke-width:0.6;" x="59.033438" xlink:href="#m5718fb0afa" y="67.210954"/>
      </g>
     </g>
    </g>
    <g id="ytick_38">
     <g id="line2d_44">
      <g>
       <use style="stroke:#000000;stroke-width:0.6;" x="59.033438" xlink:href="#m5718fb0afa" y="57.947058"/>
      </g>
     </g>
    </g>
    <g id="ytick_39">
     <g id="line2d_45">
      <g>
       <use style="stroke:#000000;stroke-width:0.6;" x="59.033438" xlink:href="#m5718fb0afa" y="51.374219"/>
      </g>
     </g>
    </g>
    <g id="ytick_40">
     <g id="line2d_46">
      <g>
       <use style="stroke:#000000;stroke-width:0.6;" x="59.033438" xlink:href="#m5718fb0afa" y="46.275929"/>
      </g>
     </g>
    </g>
    <g id="ytick_41">
     <g id="line2d_47">
      <g>
       <use style="stroke:#000000;stroke-width:0.6;" x="59.033438" xlink:href="#m5718fb0afa" y="42.110323"/>
      </g>
     </g>
    </g>
    <g id="ytick_42">
     <g id="line2d_48">
      <g>
       <use style="stroke:#000000;stroke-width:0.6;" x="59.033438" xlink:href="#m5718fb0afa" y="38.588353"/>
      </g>
     </g>
    </g>
    <g id="ytick_43">
     <g id="line2d_49">
      <g>
       <use style="stroke:#000000;stroke-width:0.6;" x="59.033438" xlink:href="#m5718fb0afa" y="35.537484"/>
      </g>
     </g>
    </g>
    <g id="ytick_44">
     <g id="line2d_50">
      <g>
       <use style="stroke:#000000;stroke-width:0.6;" x="59.033438" xlink:href="#m5718fb0afa" y="32.846427"/>
      </g>
     </g>
    </g>
    <g id="ytick_45">
     <g id="line2d_51">
      <g>
       <use style="stroke:#000000;stroke-width:0.6;" x="59.033438" xlink:href="#m5718fb0afa" y="14.602459"/>
      </g>
     </g>
    </g>
    <g id="text_13">
     <!-- 运行时间(秒) -->
     <g transform="translate(22.030313 190.512563)rotate(-90)scale(0.18 -0.18)">
      <defs>
       <path d="M 4294 4563 
Q 4448 4858 4528 4979 
Q 4608 5101 4659 5101 
Q 4730 5101 5133 4803 
Q 5536 4506 5536 4410 
Q 5536 4352 5408 4352 
L 2803 4352 
Q 2675 4352 2573 4282 
L 2406 4582 
Q 2560 4563 2726 4563 
L 4294 4563 
z
M 2035 4179 
Q 2035 3981 1907 3814 
Q 1779 3648 1555 3648 
Q 1408 3648 1302 3760 
Q 1197 3872 1197 4086 
Q 1197 4301 1075 4525 
Q 954 4749 742 4890 
Q 659 4941 659 4960 
Q 659 4979 768 4979 
Q 1318 4979 1676 4726 
Q 2035 4474 2035 4179 
z
M 4877 1306 
Q 3936 1094 3305 912 
Q 2675 730 2579 666 
Q 2483 602 2451 602 
Q 2419 602 2390 653 
Q 2362 704 2237 1033 
Q 2112 1363 2112 1395 
Q 2112 1472 2230 1472 
Q 2349 1472 2502 1654 
Q 2656 1837 2995 2304 
Q 3334 2771 3430 3117 
L 2278 3117 
Q 2150 3117 2048 3046 
L 1882 3347 
Q 2035 3328 2202 3328 
L 4813 3328 
Q 4928 3539 5021 3686 
Q 5114 3834 5136 3859 
Q 5158 3885 5190 3885 
Q 5261 3885 5677 3577 
Q 6093 3270 6093 3174 
Q 6093 3117 5965 3117 
L 4250 3117 
Q 4467 3059 4502 3024 
Q 4538 2989 4538 2950 
Q 4538 2854 4374 2841 
Q 4211 2829 3862 2429 
Q 3514 2029 2822 1466 
L 4813 1498 
Q 4627 1926 4243 2246 
Q 4173 2310 4173 2329 
Q 4173 2349 4198 2349 
Q 4288 2349 4614 2233 
Q 4941 2118 5225 1926 
Q 5510 1734 5644 1548 
Q 5779 1363 5779 1120 
Q 5779 877 5638 710 
Q 5498 544 5261 544 
Q 5133 544 5053 601 
Q 4973 659 4934 752 
Q 4896 845 4896 934 
L 4896 1094 
Q 4896 1197 4877 1306 
z
M 1030 621 
L 1030 2566 
L 544 2566 
Q 403 2566 314 2522 
L 179 2810 
Q 320 2778 461 2778 
L 973 2778 
Q 1158 3149 1235 3149 
Q 1312 3149 1648 2953 
Q 1984 2758 1984 2678 
Q 1984 2598 1792 2515 
L 1792 672 
Q 2016 454 2208 336 
Q 2400 218 2675 170 
Q 2950 122 3587 122 
Q 4224 122 4947 173 
L 6112 269 
Q 6157 269 6157 249 
Q 6157 230 6013 134 
Q 5869 38 5766 -118 
Q 5664 -275 5619 -518 
Q 5606 -570 5574 -586 
Q 5542 -602 5219 -611 
Q 4896 -621 4602 -621 
Q 3776 -621 3273 -553 
Q 2771 -486 2553 -419 
Q 2336 -352 2166 -214 
Q 1997 -77 1734 237 
Q 1619 371 1548 371 
Q 1478 371 1420 320 
Q 1363 269 1168 32 
Q 973 -205 819 -493 
Q 781 -563 758 -563 
Q 736 -563 694 -521 
Q 653 -480 489 -265 
Q 326 -51 211 154 
Q 826 518 1030 621 
z
" id="STSongti-SC-Black-8fd0" transform="scale(0.015625)"/>
       <path d="M 1875 5286 
Q 2221 5120 2473 4969 
Q 2726 4819 2764 4777 
Q 2803 4736 2803 4698 
Q 2803 4634 2701 4614 
Q 2509 4589 2246 4371 
Q 1882 4070 1219 3708 
Q 557 3347 461 3347 
Q 435 3347 435 3372 
Q 435 3398 518 3475 
Q 1101 4006 1379 4400 
Q 1658 4794 1875 5286 
z
M 4787 4538 
Q 4915 4781 5017 4921 
Q 5120 5062 5165 5062 
Q 5235 5062 5593 4758 
Q 5952 4454 5952 4390 
Q 5952 4326 5824 4326 
L 3514 4326 
Q 3386 4326 3283 4256 
L 3117 4557 
Q 3270 4538 3437 4538 
L 4787 4538 
z
M 1312 2003 
Q 998 1779 694 1596 
Q 390 1414 358 1398 
Q 326 1382 310 1382 
Q 294 1382 294 1404 
Q 294 1427 358 1498 
Q 1024 2240 1360 2768 
Q 1696 3296 1971 3962 
Q 2176 3885 2518 3661 
Q 2861 3437 2880 3414 
Q 2899 3392 2899 3353 
Q 2899 3315 2803 3283 
Q 2566 3213 2486 3097 
Q 2406 2982 2061 2630 
Q 2240 2573 2240 2512 
Q 2240 2451 2106 2387 
L 2106 -435 
Q 2106 -493 2074 -528 
Q 2042 -563 1757 -630 
Q 1472 -698 1331 -698 
Q 1286 -698 1286 -634 
L 1306 -32 
Q 1312 250 1312 499 
L 1312 2003 
z
M 4262 2771 
L 2918 2771 
Q 2790 2771 2688 2701 
L 2522 3002 
Q 2675 2982 2842 2982 
L 5197 2982 
Q 5402 3315 5466 3401 
Q 5530 3488 5574 3488 
Q 5658 3488 6006 3200 
Q 6355 2912 6355 2841 
Q 6355 2771 6227 2771 
L 5197 2771 
Q 5190 2714 5133 2637 
L 5133 13 
Q 5133 -301 5062 -448 
Q 4992 -595 4729 -665 
Q 4467 -736 4013 -736 
Q 3917 -736 3849 -681 
Q 3782 -627 3782 -550 
Q 3782 -326 3660 -220 
Q 3539 -115 3258 -58 
Q 3187 -45 3187 -13 
Q 3187 19 3366 19 
Q 3834 19 4048 73 
Q 4262 128 4262 269 
L 4262 2771 
z
" id="STSongti-SC-Black-884c" transform="scale(0.015625)"/>
       <path d="M 2592 3526 
Q 2714 3514 2867 3514 
L 4339 3514 
L 4339 4666 
Q 4339 4986 4326 5235 
Q 5037 5178 5158 5139 
Q 5280 5101 5280 5033 
Q 5280 4966 5114 4915 
L 5114 3514 
L 5158 3514 
Q 5299 3808 5356 3897 
Q 5414 3987 5475 3987 
Q 5536 3987 5849 3718 
Q 6163 3450 6163 3376 
Q 6163 3302 6042 3302 
L 5114 3302 
L 5114 147 
Q 5114 -141 5088 -278 
Q 5062 -416 4969 -499 
Q 4877 -582 4614 -652 
Q 4352 -723 4224 -723 
Q 4070 -723 4051 -563 
Q 4032 -403 3990 -300 
Q 3949 -198 3814 -118 
Q 3680 -38 3418 -6 
Q 3328 0 3328 41 
Q 3328 83 3424 83 
L 3814 70 
Q 4058 70 4170 99 
Q 4282 128 4310 185 
Q 4339 243 4339 352 
L 4339 3302 
L 2944 3302 
Q 2816 3302 2714 3232 
L 2592 3450 
L 2592 1152 
Q 2592 851 2598 736 
L 2605 525 
Q 2605 448 2566 397 
Q 2528 346 2358 294 
Q 2189 243 1971 243 
Q 1926 243 1888 291 
Q 1850 339 1850 410 
L 1850 749 
L 1133 749 
L 1133 256 
Q 1133 192 1094 144 
Q 1056 96 899 45 
Q 742 -6 602 -6 
Q 378 -6 378 109 
L 390 410 
Q 403 723 403 979 
L 403 4045 
Q 403 4435 390 4710 
Q 813 4563 1107 4422 
L 1747 4422 
Q 1907 4691 1952 4752 
Q 1997 4813 2045 4813 
Q 2093 4813 2345 4656 
Q 2598 4499 2707 4409 
Q 2816 4320 2816 4259 
Q 2816 4198 2592 4096 
L 2592 3526 
z
M 1133 2720 
L 1850 2720 
L 1850 4211 
L 1248 4211 
Q 1235 4128 1133 4096 
L 1133 2720 
z
M 1850 2509 
L 1133 2509 
L 1133 960 
L 1850 960 
L 1850 2509 
z
M 2970 2861 
Q 3142 2861 3376 2771 
Q 3610 2682 3770 2554 
Q 3930 2426 4003 2298 
Q 4077 2170 4077 1981 
Q 4077 1792 3939 1638 
Q 3802 1485 3603 1485 
Q 3405 1485 3312 1609 
Q 3219 1734 3238 1900 
Q 3258 2067 3258 2163 
Q 3258 2522 2989 2758 
Q 2925 2816 2925 2838 
Q 2925 2861 2970 2861 
z
" id="STSongti-SC-Black-65f6" transform="scale(0.015625)"/>
       <path d="M 1427 5254 
Q 1907 5254 2294 5052 
Q 2682 4851 2682 4512 
Q 2682 4307 2541 4156 
Q 2400 4006 2202 4006 
Q 2074 4006 1987 4054 
Q 1901 4102 1869 4176 
Q 1837 4250 1837 4397 
Q 1837 4864 1427 5171 
Q 1363 5222 1363 5238 
Q 1363 5254 1427 5254 
z
M 4781 4698 
Q 4934 4992 4988 5069 
Q 5043 5146 5088 5146 
Q 5197 5146 5606 4893 
Q 6016 4640 6016 4525 
Q 6016 4442 5766 4352 
L 5766 186 
Q 5766 -179 5664 -332 
Q 5562 -486 5296 -560 
Q 5030 -634 4870 -634 
Q 4710 -634 4698 -538 
Q 4678 -256 4502 -115 
Q 4326 26 3968 109 
Q 3840 141 3840 160 
Q 3840 179 4122 179 
Q 4557 179 4761 230 
Q 4966 282 4966 454 
L 4966 4486 
L 3290 4486 
Q 3162 4486 3059 4416 
L 2893 4717 
Q 3046 4698 3213 4698 
L 4781 4698 
z
M 614 4544 
Q 915 4499 1155 4428 
Q 1395 4358 1462 4320 
Q 1530 4282 1530 4237 
Q 1530 4154 1338 4077 
L 1338 -378 
Q 1338 -454 1293 -476 
Q 1248 -499 1117 -544 
Q 986 -589 710 -589 
Q 614 -589 614 -499 
L 621 -243 
Q 627 -90 627 301 
L 627 3974 
Q 627 4294 614 4544 
z
M 2650 3539 
L 3443 3539 
Q 3584 3770 3648 3846 
Q 3712 3923 3750 3923 
Q 3827 3923 4192 3699 
Q 4557 3475 4557 3388 
Q 4557 3302 4333 3226 
L 4333 1478 
L 4346 890 
Q 4346 838 4330 812 
Q 4314 787 4230 745 
Q 4147 704 4000 675 
Q 3853 646 3715 646 
Q 3578 646 3578 781 
L 3578 986 
L 2611 986 
L 2611 813 
Q 2611 717 2441 653 
Q 2272 589 2077 589 
Q 1882 589 1888 691 
Q 1914 979 1914 1261 
L 1914 3251 
Q 1914 3533 1894 3808 
Q 2330 3693 2650 3539 
z
M 2611 2426 
L 3578 2426 
L 3578 3328 
L 2714 3328 
Q 2688 3277 2611 3251 
L 2611 2426 
z
M 3578 2214 
L 2611 2214 
L 2611 1197 
L 3578 1197 
L 3578 2214 
z
" id="STSongti-SC-Black-95f4" transform="scale(0.015625)"/>
       <path d="M 1312 4294 
Q 698 4237 352 4237 
Q 250 4237 250 4269 
Q 250 4301 384 4333 
Q 1466 4608 2349 5158 
Q 2611 4947 2806 4764 
Q 3002 4582 3053 4528 
Q 3104 4474 3104 4435 
Q 3104 4397 3046 4397 
Q 2989 4397 2921 4406 
Q 2854 4416 2649 4416 
Q 2445 4416 2150 4390 
Q 2106 4307 1997 4262 
L 1997 3290 
L 2157 3290 
Q 2253 3475 2342 3603 
Q 2432 3731 2470 3731 
Q 2509 3731 2669 3619 
Q 2829 3507 3078 3258 
Q 3162 3706 3155 4019 
Q 3731 3827 3974 3706 
L 3974 4672 
Q 3974 4992 3962 5242 
Q 4877 5203 4877 5062 
Q 4877 5005 4723 4934 
L 4723 4032 
Q 5434 3872 5818 3536 
Q 6202 3200 6202 2835 
Q 6202 2611 6074 2480 
Q 5946 2349 5763 2349 
Q 5581 2349 5507 2432 
Q 5434 2515 5414 2701 
Q 5331 3584 4723 3962 
L 4723 2342 
Q 4723 2093 4730 1926 
L 4742 1638 
Q 4742 1568 4694 1523 
Q 4646 1478 4464 1430 
Q 4282 1382 4051 1382 
Q 3955 1382 3955 1517 
L 3968 1766 
Q 3974 2022 3974 2342 
L 3974 3469 
Q 3872 3456 3770 3270 
Q 3411 2624 2957 2131 
Q 3021 2022 3021 1868 
Q 3021 1715 2905 1584 
Q 2790 1453 2611 1453 
Q 2291 1453 2272 1824 
Q 2246 2426 1997 2624 
L 1997 -352 
Q 1997 -422 1929 -473 
Q 1862 -525 1702 -566 
Q 1542 -608 1436 -608 
Q 1331 -608 1312 -592 
Q 1293 -576 1293 -531 
L 1299 -269 
Q 1312 -6 1312 307 
L 1312 1741 
Q 1062 1325 678 937 
Q 294 550 230 550 
Q 211 550 211 579 
Q 211 608 275 691 
Q 966 1626 1242 3078 
L 576 3078 
Q 448 3078 346 3008 
L 179 3309 
Q 333 3290 499 3290 
L 1312 3290 
L 1312 4294 
z
M 3040 3078 
L 1997 3078 
L 1997 2720 
Q 2528 2573 2797 2336 
Q 2950 2701 3040 3078 
z
M 5062 2400 
Q 5427 2240 5667 2109 
Q 5907 1978 5942 1936 
Q 5978 1894 5978 1850 
Q 5978 1766 5878 1766 
Q 5779 1766 5740 1731 
Q 5702 1696 5638 1587 
Q 5350 1088 5004 717 
Q 4659 346 4172 54 
Q 3686 -237 2979 -448 
Q 2272 -659 2048 -659 
Q 1997 -659 1997 -630 
Q 1997 -602 2106 -563 
Q 3258 -192 4035 573 
Q 4813 1338 5062 2400 
z
" id="STSongti-SC-Black-79d2" transform="scale(0.015625)"/>
      </defs>
      <use xlink:href="#STSongti-SC-Black-8fd0"/>
      <use x="99.999985" xlink:href="#STSongti-SC-Black-884c"/>
      <use x="199.999969" xlink:href="#STSongti-SC-Black-65f6"/>
      <use x="299.999954" xlink:href="#STSongti-SC-Black-95f4"/>
      <use x="399.999939" xlink:href="#STSongti-SC-Black-28"/>
      <use x="429.199936" xlink:href="#STSongti-SC-Black-79d2"/>
      <use x="529.199921" xlink:href="#STSongti-SC-Black-29"/>
     </g>
    </g>
   </g>
   <g id="line2d_52">
    <path clip-path="url(#pe0a1e95521)" d="M 75.266165 211.208481 
L 122.027108 149.176316 
L 220.625895 85.613067 
L 399.92071 39.780527 
" style="fill:none;stroke:#008000;stroke-linecap:square;stroke-width:3;"/>
    <defs>
     <path d="M 0 6 
C 1.591219 6 3.117479 5.367802 4.242641 4.242641 
C 5.367802 3.117479 6 1.591219 6 0 
C 6 -1.591219 5.367802 -3.117479 4.242641 -4.242641 
C 3.117479 -5.367802 1.591219 -6 0 -6 
C -1.591219 -6 -3.117479 -5.367802 -4.242641 -4.242641 
C -5.367802 -3.117479 -6 -1.591219 -6 0 
C -6 1.591219 -5.367802 3.117479 -4.242641 4.242641 
C -3.117479 5.367802 -1.591219 6 0 6 
z
" id="mba229b9886" style="stroke:#008000;"/>
    </defs>
    <g clip-path="url(#pe0a1e95521)">
     <use style="fill:#008000;stroke:#008000;" x="75.266165" xlink:href="#mba229b9886" y="211.208481"/>
     <use style="fill:#008000;stroke:#008000;" x="122.027108" xlink:href="#mba229b9886" y="149.176316"/>
     <use style="fill:#008000;stroke:#008000;" x="220.625895" xlink:href="#mba229b9886" y="85.613067"/>
     <use style="fill:#008000;stroke:#008000;" x="399.92071" xlink:href="#mba229b9886" y="39.780527"/>
    </g>
   </g>
   <g id="line2d_53">
    <path clip-path="url(#pe0a1e95521)" d="M 75.266165 261.216 
L 122.027108 215.828932 
L 220.625895 171.648958 
L 399.92071 136.819937 
" style="fill:none;stroke:#ff0000;stroke-linecap:square;stroke-width:3;"/>
    <defs>
     <path d="M -2 6 
L 2 6 
L 2 2 
L 6 2 
L 6 -2 
L 2 -2 
L 2 -6 
L -2 -6 
L -2 -2 
L -6 -2 
L -6 2 
L -2 2 
z
" id="m43290468dd" style="stroke:#ff0000;stroke-linejoin:miter;"/>
    </defs>
    <g clip-path="url(#pe0a1e95521)">
     <use style="fill:#ff0000;stroke:#ff0000;stroke-linejoin:miter;" x="75.266165" xlink:href="#m43290468dd" y="261.216"/>
     <use style="fill:#ff0000;stroke:#ff0000;stroke-linejoin:miter;" x="122.027108" xlink:href="#m43290468dd" y="215.828932"/>
     <use style="fill:#ff0000;stroke:#ff0000;stroke-linejoin:miter;" x="220.625895" xlink:href="#m43290468dd" y="171.648958"/>
     <use style="fill:#ff0000;stroke:#ff0000;stroke-linejoin:miter;" x="399.92071" xlink:href="#m43290468dd" y="136.819937"/>
    </g>
   </g>
   <g id="line2d_54">
    <path clip-path="url(#pe0a1e95521)" d="M 75.266165 175.887488 
L 122.027108 134.217894 
L 220.625895 75.010587 
L 399.92071 19.296 
" style="fill:none;stroke:#0000ff;stroke-linecap:square;stroke-width:3;"/>
    <defs>
     <path d="M 0 -6 
L -6 6 
L 6 6 
z
" id="mcf2e80bb9b" style="stroke:#0000ff;stroke-linejoin:miter;"/>
    </defs>
    <g clip-path="url(#pe0a1e95521)">
     <use style="fill:#0000ff;stroke:#0000ff;stroke-linejoin:miter;" x="75.266165" xlink:href="#mcf2e80bb9b" y="175.887488"/>
     <use style="fill:#0000ff;stroke:#0000ff;stroke-linejoin:miter;" x="122.027108" xlink:href="#mcf2e80bb9b" y="134.217894"/>
     <use style="fill:#0000ff;stroke:#0000ff;stroke-linejoin:miter;" x="220.625895" xlink:href="#mcf2e80bb9b" y="75.010587"/>
     <use style="fill:#0000ff;stroke:#0000ff;stroke-linejoin:miter;" x="399.92071" xlink:href="#mcf2e80bb9b" y="19.296"/>
    </g>
   </g>
   <g id="patch_3">
    <path d="M 59.033438 273.312 
L 59.033438 7.2 
" style="fill:none;stroke:#000000;stroke-linecap:square;stroke-linejoin:miter;stroke-width:0.8;"/>
   </g>
   <g id="patch_4">
    <path d="M 416.153438 273.312 
L 416.153438 7.2 
" style="fill:none;stroke:#000000;stroke-linecap:square;stroke-linejoin:miter;stroke-width:0.8;"/>
   </g>
   <g id="patch_5">
    <path d="M 59.033438 273.312 
L 416.153438 273.312 
" style="fill:none;stroke:#000000;stroke-linecap:square;stroke-linejoin:miter;stroke-width:0.8;"/>
   </g>
   <g id="patch_6">
    <path d="M 59.033438 7.2 
L 416.153438 7.2 
" style="fill:none;stroke:#000000;stroke-linecap:square;stroke-linejoin:miter;stroke-width:0.8;"/>
   </g>
   <g id="legend_1">
    <g id="patch_7">
     <path d="M 69.113438 78.8985 
L 201.593437 78.8985 
Q 204.473437 78.8985 204.473437 76.0185 
L 204.473437 17.28 
Q 204.473437 14.4 201.593437 14.4 
L 69.113438 14.4 
Q 66.233438 14.4 66.233438 17.28 
L 66.233438 76.0185 
Q 66.233438 78.8985 69.113438 78.8985 
z
" style="fill:#ffffff;opacity:0.8;stroke:#cccccc;stroke-linejoin:miter;"/>
    </g>
    <g id="line2d_55">
     <path d="M 71.993438 25.488 
L 100.793438 25.488 
" style="fill:none;stroke:#008000;stroke-linecap:square;stroke-width:3;"/>
    </g>
    <g id="line2d_56">
     <g>
      <use style="fill:#008000;stroke:#008000;" x="86.393438" xlink:href="#mba229b9886" y="25.488"/>
     </g>
    </g>
    <g id="text_14">
     <!-- PSP -->
     <g transform="translate(112.313438 30.528)scale(0.144 -0.144)">
      <defs>
       <path d="M 160 4384 
Q 474 4384 685 4387 
Q 896 4390 1005 4397 
L 1933 4448 
Q 2054 4454 2102 4454 
Q 2150 4454 2176 4454 
Q 2477 4454 2739 4387 
Q 3002 4320 3194 4176 
Q 3386 4032 3498 3808 
Q 3610 3584 3610 3277 
Q 3610 2995 3498 2784 
Q 3386 2573 3203 2429 
Q 3021 2285 2787 2214 
Q 2554 2144 2317 2144 
Q 2131 2144 1990 2195 
Q 1850 2246 1728 2368 
L 1741 2426 
Q 1824 2394 1920 2384 
Q 2016 2374 2086 2374 
Q 2246 2374 2377 2419 
Q 2509 2464 2605 2563 
Q 2701 2662 2755 2828 
Q 2810 2995 2810 3245 
Q 2810 3667 2598 3932 
Q 2387 4198 1952 4198 
Q 1862 4198 1801 4195 
Q 1741 4192 1690 4186 
Q 1638 4179 1603 4169 
Q 1568 4160 1536 4147 
L 1536 864 
Q 1536 768 1577 701 
Q 1619 634 1760 608 
L 2144 538 
L 2144 358 
Q 1875 371 1635 377 
Q 1395 384 1222 384 
Q 1024 384 816 377 
Q 608 371 288 365 
L 288 544 
L 646 614 
Q 742 634 774 685 
Q 806 736 806 858 
L 806 3744 
Q 806 3987 656 4070 
Q 506 4154 160 4192 
L 160 4384 
z
" id="STSongti-SC-Black-50" transform="scale(0.015625)"/>
       <path d="M 2355 3373 
Q 2266 3795 2051 3980 
Q 1837 4166 1466 4166 
Q 1197 4166 992 4025 
Q 787 3885 787 3635 
Q 787 3482 854 3373 
Q 922 3264 1043 3184 
Q 1165 3104 1331 3033 
Q 1498 2963 1696 2880 
Q 1990 2758 2198 2640 
Q 2406 2522 2540 2371 
Q 2675 2221 2739 2025 
Q 2803 1830 2803 1549 
Q 2803 1254 2694 1020 
Q 2586 787 2384 624 
Q 2182 461 1904 371 
Q 1626 282 1293 282 
Q 672 282 160 582 
L 230 1600 
L 371 1600 
Q 384 1389 470 1206 
Q 557 1024 697 886 
Q 838 749 1017 672 
Q 1197 595 1402 595 
Q 1562 595 1712 636 
Q 1862 678 1974 758 
Q 2086 838 2153 956 
Q 2221 1075 2221 1229 
Q 2221 1427 2150 1558 
Q 2080 1690 1942 1786 
Q 1805 1882 1603 1962 
Q 1402 2042 1146 2150 
Q 858 2272 672 2406 
Q 486 2541 380 2688 
Q 275 2835 233 2998 
Q 192 3162 192 3334 
Q 192 3635 313 3846 
Q 435 4058 633 4192 
Q 832 4326 1078 4387 
Q 1325 4448 1568 4448 
Q 2125 4448 2496 4166 
L 2470 3373 
L 2355 3373 
z
" id="STSongti-SC-Black-53" transform="scale(0.015625)"/>
      </defs>
      <use xlink:href="#STSongti-SC-Black-50"/>
      <use x="58.899994" xlink:href="#STSongti-SC-Black-53"/>
      <use x="105.199982" xlink:href="#STSongti-SC-Black-50"/>
     </g>
    </g>
    <g id="line2d_57">
     <path d="M 71.993438 45.0585 
L 100.793438 45.0585 
" style="fill:none;stroke:#ff0000;stroke-linecap:square;stroke-width:3;"/>
    </g>
    <g id="line2d_58">
     <g>
      <use style="fill:#ff0000;stroke:#ff0000;stroke-linejoin:miter;" x="86.393438" xlink:href="#m43290468dd" y="45.0585"/>
     </g>
    </g>
    <g id="text_15">
     <!-- HPSP -->
     <g transform="translate(112.313438 50.0985)scale(0.144 -0.144)">
      <defs>
       <path d="M 3584 3955 
Q 3584 4090 3552 4138 
Q 3520 4186 3443 4198 
L 3136 4237 
L 3136 4403 
Q 3258 4390 3517 4384 
Q 3776 4378 4051 4378 
Q 4326 4378 4585 4384 
Q 4845 4390 4960 4403 
L 4960 4237 
L 4538 4173 
Q 4454 4160 4428 4115 
Q 4403 4070 4403 3949 
L 4403 883 
Q 4403 742 4432 691 
Q 4461 640 4576 614 
L 5037 525 
L 5037 358 
Q 4877 371 4605 377 
Q 4333 384 4070 384 
Q 3942 384 3804 384 
Q 3667 384 3536 381 
Q 3405 378 3289 371 
Q 3174 365 3091 358 
L 3091 525 
L 3456 589 
Q 3533 602 3558 666 
Q 3584 730 3584 883 
L 3584 2253 
L 1606 2253 
L 1606 883 
Q 1606 723 1632 662 
Q 1658 602 1741 589 
L 2106 525 
L 2106 358 
Q 2022 365 1907 371 
Q 1792 378 1661 381 
Q 1530 384 1389 384 
Q 1248 384 1120 384 
Q 864 384 592 377 
Q 320 371 160 358 
L 160 525 
L 621 614 
Q 723 634 755 691 
Q 787 749 787 883 
L 787 3955 
Q 787 4090 755 4138 
Q 723 4186 646 4198 
L 339 4237 
L 339 4403 
Q 461 4390 723 4384 
Q 986 4378 1274 4378 
Q 1555 4378 1817 4384 
Q 2080 4390 2195 4403 
L 2195 4237 
L 1741 4173 
Q 1658 4160 1632 4112 
Q 1606 4064 1606 3949 
L 1606 2547 
L 3584 2547 
L 3584 3955 
z
" id="STSongti-SC-Black-48" transform="scale(0.015625)"/>
      </defs>
      <use xlink:href="#STSongti-SC-Black-48"/>
      <use x="81.199982" xlink:href="#STSongti-SC-Black-50"/>
      <use x="140.099976" xlink:href="#STSongti-SC-Black-53"/>
      <use x="186.399963" xlink:href="#STSongti-SC-Black-50"/>
     </g>
    </g>
    <g id="line2d_59">
     <path d="M 71.993438 66.096 
L 100.793438 66.096 
" style="fill:none;stroke:#0000ff;stroke-linecap:square;stroke-width:3;"/>
    </g>
    <g id="line2d_60">
     <g>
      <use style="fill:#0000ff;stroke:#0000ff;stroke-linejoin:miter;" x="86.393438" xlink:href="#mcf2e80bb9b" y="66.096"/>
     </g>
    </g>
    <g id="text_16">
     <!-- 参数化最大流 -->
     <g transform="translate(112.313438 71.136)scale(0.144 -0.144)">
      <defs>
       <path d="M 4467 3898 
Q 3622 3802 2899 3686 
Q 3085 3648 3286 3593 
Q 3488 3539 3558 3523 
Q 3629 3507 3664 3481 
Q 3699 3456 3699 3414 
Q 3699 3373 3593 3344 
Q 3488 3315 3245 2989 
L 5088 2989 
Q 5357 3437 5389 3478 
Q 5421 3520 5475 3520 
Q 5530 3520 5747 3366 
Q 5965 3213 6128 3049 
Q 6291 2886 6291 2832 
Q 6291 2778 6189 2778 
L 4218 2778 
Q 4954 2112 6272 2010 
Q 6381 1997 6381 1965 
Q 6381 1933 6256 1888 
Q 6131 1843 5980 1670 
Q 5830 1498 5741 1280 
Q 5696 1171 5632 1171 
Q 5510 1171 4800 1651 
Q 4090 2131 3898 2778 
L 3091 2778 
Q 2630 2170 2144 1869 
Q 1658 1568 1072 1427 
Q 486 1286 384 1286 
Q 282 1286 282 1306 
Q 282 1344 518 1459 
Q 1670 2022 2234 2778 
L 653 2778 
Q 518 2778 442 2733 
L 346 3021 
Q 461 2989 602 2989 
L 2381 2989 
Q 2573 3283 2714 3654 
Q 1920 3501 1472 3354 
Q 1434 3341 1392 3341 
Q 1350 3341 1321 3389 
Q 1293 3437 1197 3737 
Q 1101 4038 1101 4086 
Q 1101 4134 1216 4154 
Q 1715 4243 2140 4566 
Q 2566 4890 2771 5363 
Q 3136 5280 3456 5177 
Q 3776 5075 3827 5040 
Q 3878 5005 3878 4966 
Q 3878 4896 3753 4886 
Q 3629 4877 3373 4707 
Q 3117 4538 2787 4400 
Q 2458 4262 1958 4077 
L 4371 4115 
Q 4294 4275 4169 4396 
Q 4045 4518 3763 4659 
Q 3686 4698 3686 4723 
Q 3686 4749 3827 4749 
Q 4525 4749 4941 4489 
Q 5357 4230 5357 3872 
Q 5357 3686 5225 3555 
Q 5094 3424 4937 3424 
Q 4781 3424 4685 3485 
Q 4589 3546 4499 3814 
Q 4480 3872 4467 3898 
z
M 3258 2598 
Q 3584 2349 3747 2169 
Q 3910 1990 3910 1939 
Q 3910 1888 3868 1888 
Q 3827 1888 3795 1897 
Q 3763 1907 3738 1907 
Q 3667 1907 3469 1779 
Q 2714 1299 1987 1059 
Q 1261 819 1094 819 
Q 1050 819 1050 838 
Q 1050 877 1293 973 
Q 2406 1446 3258 2598 
z
M 3891 1888 
Q 4134 1728 4313 1558 
Q 4493 1389 4534 1334 
Q 4576 1280 4576 1238 
Q 4576 1197 4518 1197 
L 4442 1203 
Q 4365 1203 4000 1018 
Q 3149 582 2336 371 
Q 1523 160 1152 160 
Q 1056 160 1056 186 
Q 1056 224 1331 301 
Q 2022 493 2777 960 
Q 3533 1427 3891 1888 
z
M 4634 1267 
Q 4870 1114 5068 925 
Q 5267 736 5324 656 
Q 5382 576 5382 534 
Q 5382 493 5306 493 
L 5210 499 
Q 5114 499 4845 365 
Q 3565 -256 2589 -470 
Q 1613 -685 928 -685 
Q 781 -685 781 -659 
Q 781 -627 1056 -570 
Q 2035 -371 2966 109 
Q 3898 589 4634 1267 
z
" id="STSongti-SC-Black-53c2" transform="scale(0.015625)"/>
       <path d="M 1312 2797 
Q 1037 2515 707 2236 
Q 378 1958 310 1913 
Q 243 1869 220 1869 
Q 198 1869 198 1897 
Q 198 1926 269 2016 
Q 902 2822 1180 3548 
Q 1459 4275 1606 5216 
Q 1997 5152 2304 5046 
Q 2611 4941 2691 4899 
Q 2771 4858 2771 4806 
Q 2771 4730 2668 4710 
Q 2566 4691 2496 4585 
Q 2426 4480 2227 4038 
Q 2112 3795 1894 3482 
Q 2157 3418 2211 3389 
Q 2266 3360 2266 3315 
Q 2266 3219 2086 3162 
L 2086 954 
Q 2790 1414 3309 1856 
L 3309 4454 
Q 3309 4870 3290 5152 
Q 3674 5126 3920 5084 
Q 4166 5043 4227 5008 
Q 4288 4973 4288 4928 
Q 4288 4838 4102 4774 
L 4102 2637 
Q 4736 3366 5171 4378 
Q 5549 4173 5830 3981 
Q 6112 3789 6147 3744 
Q 6182 3699 6182 3654 
Q 6182 3610 6144 3594 
Q 6106 3578 6010 3578 
Q 5914 3578 5747 3398 
Q 4858 2451 4102 1914 
L 4102 518 
Q 4102 307 4188 236 
Q 4275 166 4630 166 
Q 4986 166 5149 233 
Q 5312 301 5421 525 
Q 5530 749 5734 1389 
Q 5747 1434 5763 1434 
Q 5779 1434 5779 1402 
L 5760 992 
Q 5760 634 5833 429 
Q 5907 224 6080 147 
Q 6253 70 6253 -26 
Q 6253 -122 6121 -269 
Q 5990 -416 5558 -483 
Q 5126 -550 4486 -550 
Q 3846 -550 3577 -368 
Q 3309 -186 3309 275 
L 3309 1421 
Q 2758 1114 2086 858 
L 2086 -435 
Q 2086 -550 1862 -611 
Q 1638 -672 1427 -672 
Q 1286 -672 1286 -608 
L 1306 -6 
Q 1312 275 1312 525 
L 1312 2797 
z
" id="STSongti-SC-Black-5316" transform="scale(0.015625)"/>
       <path d="M 2125 4826 
L 4205 4826 
Q 4256 4915 4333 5033 
Q 4410 5152 4426 5161 
Q 4442 5171 4461 5171 
Q 4531 5171 4819 5024 
L 5197 4826 
Q 5286 4781 5286 4720 
Q 5286 4659 5094 4589 
L 5094 3834 
L 5107 3245 
Q 5107 3181 5062 3142 
Q 5018 3104 4848 3056 
Q 4678 3008 4496 3008 
Q 4314 3008 4285 3040 
Q 4256 3072 4256 3187 
L 1971 3187 
Q 1958 3104 1897 3072 
Q 1837 3040 1725 3017 
Q 1613 2995 1478 2995 
Q 1344 2995 1289 3008 
Q 1235 3021 1235 3059 
Q 1235 3098 1238 3200 
Q 1242 3302 1242 3622 
L 1242 4563 
Q 1242 4845 1222 5120 
Q 1677 4998 2125 4826 
z
M 1971 4128 
L 4256 4128 
L 4256 4614 
L 2125 4614 
Q 2074 4570 1971 4531 
L 1971 4128 
z
M 4256 3917 
L 1971 3917 
L 1971 3398 
L 4256 3398 
L 4256 3917 
z
M 4410 109 
Q 3821 -371 3123 -582 
Q 3117 -691 2925 -739 
Q 2733 -787 2611 -787 
Q 2490 -787 2442 -764 
Q 2394 -742 2394 -678 
L 2394 314 
Q 1453 -26 672 -346 
Q 640 -358 621 -358 
Q 602 -358 579 -332 
Q 557 -307 457 -54 
Q 358 198 288 480 
Q 570 480 934 512 
L 934 2528 
L 563 2528 
Q 435 2528 333 2458 
L 166 2758 
Q 320 2739 486 2739 
L 5050 2739 
Q 5133 2886 5238 3049 
Q 5344 3213 5373 3248 
Q 5402 3283 5440 3283 
Q 5530 3283 5875 2992 
Q 6221 2701 6221 2592 
Q 6221 2528 6112 2528 
L 3232 2528 
Q 3206 2438 3110 2394 
L 3110 762 
Q 3501 813 3574 813 
Q 3648 813 3648 793 
Q 3648 774 3520 730 
L 3110 576 
L 3110 51 
Q 3110 -365 3123 -538 
Q 3699 -173 4134 435 
Q 3725 1018 3648 1850 
Q 3533 1837 3437 1779 
L 3270 2080 
Q 3424 2061 3590 2061 
L 4698 2061 
Q 4832 2272 4864 2326 
Q 4896 2381 4953 2381 
Q 5011 2381 5283 2243 
Q 5555 2106 5664 2035 
Q 5773 1965 5773 1901 
Q 5773 1830 5683 1820 
Q 5594 1811 5549 1737 
Q 5504 1664 5328 1286 
Q 5152 909 4883 582 
Q 5376 339 6150 160 
Q 6246 141 6246 112 
Q 6246 83 6163 45 
Q 5741 -154 5600 -570 
Q 5574 -646 5498 -646 
Q 5408 -646 5011 -374 
Q 4614 -102 4410 109 
z
M 2394 2528 
L 1747 2528 
Q 1709 2458 1619 2419 
L 1619 2061 
L 2394 2061 
L 2394 2528 
z
M 2394 1850 
L 1619 1850 
L 1619 1350 
L 2394 1350 
L 2394 1850 
z
M 4410 896 
Q 4640 1350 4717 1850 
L 3770 1850 
Q 3949 1267 4410 896 
z
M 1619 582 
Q 1830 614 2394 672 
L 2394 1139 
L 1619 1139 
L 1619 582 
z
" id="STSongti-SC-Black-6700" transform="scale(0.015625)"/>
       <path d="M 2662 3104 
L 755 3104 
Q 627 3104 525 3034 
L 358 3334 
Q 512 3315 678 3315 
L 2675 3315 
Q 2701 3795 2701 4291 
Q 2701 4787 2669 5299 
Q 2931 5280 3334 5225 
Q 3738 5171 3789 5142 
Q 3840 5114 3840 5069 
Q 3840 4986 3725 4947 
Q 3667 4928 3638 4851 
Q 3610 4774 3597 4393 
Q 3584 4013 3514 3315 
L 4896 3315 
Q 5165 3750 5232 3833 
Q 5299 3917 5350 3917 
Q 5453 3917 5840 3587 
Q 6227 3258 6227 3155 
Q 6227 3104 6106 3104 
L 3610 3104 
Q 3904 1914 4621 1171 
Q 5338 429 6330 218 
Q 6387 205 6387 163 
Q 6387 122 6291 96 
Q 6080 38 5862 -144 
Q 5645 -326 5577 -454 
Q 5510 -582 5434 -582 
Q 5280 -582 4710 -73 
Q 4141 435 3843 1126 
Q 3546 1818 3475 2886 
Q 3392 2150 3328 1830 
Q 3264 1510 3101 1174 
Q 2938 838 2656 553 
Q 2374 269 1942 19 
Q 1510 -230 963 -425 
Q 416 -621 365 -621 
Q 314 -621 314 -589 
Q 314 -557 365 -531 
Q 986 -218 1414 134 
Q 1843 486 2108 896 
Q 2374 1306 2496 1773 
Q 2618 2240 2662 3104 
z
" id="STSongti-SC-Black-5927" transform="scale(0.015625)"/>
       <path d="M 3603 5229 
Q 4045 5229 4285 5091 
Q 4525 4954 4525 4733 
Q 4525 4512 4387 4390 
Q 4250 4269 4006 4269 
Q 3872 4269 3769 4371 
Q 3667 4474 3667 4678 
Q 3667 4883 3600 4976 
Q 3533 5069 3360 5146 
Q 3302 5171 3302 5190 
Q 3302 5229 3603 5229 
z
M 1939 4294 
Q 1939 4122 1804 3994 
Q 1670 3866 1510 3866 
Q 1350 3866 1260 3962 
Q 1171 4058 1152 4224 
Q 1101 4653 800 4832 
Q 730 4870 730 4892 
Q 730 4915 806 4915 
Q 1331 4915 1635 4755 
Q 1939 4595 1939 4294 
z
M 3360 3968 
L 2266 3968 
L 1824 2304 
Q 1638 1613 1638 1187 
Q 1638 762 1696 426 
Q 1754 90 1754 -26 
Q 1754 -314 1610 -474 
Q 1466 -634 1229 -634 
Q 800 -634 800 -211 
Q 800 -58 886 220 
Q 973 499 973 771 
Q 973 1043 822 1209 
Q 672 1376 346 1446 
Q 294 1453 294 1481 
Q 294 1510 358 1510 
Q 883 1530 1097 1731 
Q 1312 1933 1504 2413 
L 2272 4371 
Q 2323 4499 2355 4499 
Q 2387 4499 2387 4454 
Q 2387 4410 2368 4339 
L 2323 4179 
L 5114 4179 
Q 5299 4512 5376 4621 
Q 5453 4730 5504 4730 
Q 5581 4730 5926 4429 
Q 6272 4128 6272 4048 
Q 6272 3968 6118 3968 
L 4589 3968 
Q 4557 3930 4480 3923 
Q 4224 3885 2918 3008 
L 5018 3008 
Q 4890 3232 4691 3427 
Q 4493 3622 4314 3731 
Q 4256 3763 4256 3792 
Q 4256 3821 4307 3821 
Q 4435 3821 4918 3635 
Q 5402 3450 5693 3190 
Q 5984 2931 5984 2736 
Q 5984 2541 5862 2393 
Q 5741 2246 5587 2246 
Q 5210 2246 5152 2637 
Q 5146 2726 5101 2842 
Q 3533 2598 2618 2298 
Q 2835 2278 3094 2217 
Q 3354 2157 3382 2131 
Q 3411 2106 3411 2067 
Q 3411 2003 3353 1971 
Q 3296 1939 3280 1888 
Q 3264 1837 3251 1651 
Q 3181 774 2918 313 
Q 2656 -147 2121 -428 
Q 1587 -710 1485 -710 
Q 1453 -710 1453 -688 
Q 1453 -666 1510 -627 
Q 2003 -346 2201 -19 
Q 2400 307 2477 812 
Q 2554 1318 2547 2272 
Q 2490 2240 2448 2240 
Q 2406 2240 2390 2275 
Q 2374 2310 2284 2643 
Q 2195 2976 2195 2989 
Q 2195 3046 2253 3046 
Q 2400 3053 2528 3120 
Q 2656 3187 2982 3510 
Q 3309 3834 3360 3968 
z
M 1408 2938 
Q 1408 2739 1270 2592 
Q 1133 2445 928 2445 
Q 653 2445 605 2806 
Q 557 3168 282 3328 
Q 211 3366 211 3386 
Q 211 3424 595 3424 
Q 979 3424 1193 3299 
Q 1408 3174 1408 2938 
z
M 4230 2093 
L 4230 269 
Q 4230 -45 4237 -166 
L 4243 -403 
Q 4243 -454 4182 -492 
Q 4122 -531 3930 -579 
Q 3738 -627 3622 -627 
Q 3565 -627 3565 -499 
L 3565 1798 
Q 3565 2118 3552 2368 
Q 4077 2349 4214 2310 
Q 4352 2272 4352 2217 
Q 4352 2163 4230 2093 
z
M 5299 2029 
L 5299 410 
Q 5299 243 5331 198 
Q 5363 154 5456 154 
Q 5549 154 5609 211 
Q 5670 269 5747 470 
Q 5824 672 5946 1094 
Q 5971 1184 6006 1184 
Q 6042 1184 6022 1033 
Q 6003 883 6003 684 
Q 6003 486 6057 332 
Q 6112 179 6237 96 
Q 6362 13 6362 -102 
Q 6362 -275 6147 -444 
Q 5933 -614 5459 -614 
Q 4986 -614 4797 -521 
Q 4608 -429 4608 -77 
L 4608 1632 
Q 4608 2067 4589 2349 
Q 4979 2323 5209 2268 
Q 5440 2214 5440 2150 
Q 5440 2086 5299 2029 
z
" id="STSongti-SC-Black-6d41" transform="scale(0.015625)"/>
      </defs>
      <use xlink:href="#STSongti-SC-Black-53c2"/>
      <use x="99.999985" xlink:href="#STSongti-SC-Black-6570"/>
      <use x="199.999969" xlink:href="#STSongti-SC-Black-5316"/>
      <use x="299.999954" xlink:href="#STSongti-SC-Black-6700"/>
      <use x="399.999939" xlink:href="#STSongti-SC-Black-5927"/>
      <use x="499.999924" xlink:href="#STSongti-SC-Black-6d41"/>
     </g>
    </g>
   </g>
  </g>
 </g>
 <defs>
  <clipPath id="pe0a1e95521">
   <rect height="266.112" width="357.12" x="59.033438" y="7.2"/>
  </clipPath>
 </defs>
</svg>
