<?xml version="1.0" encoding="utf-8" standalone="no"?>
<!DOCTYPE svg PUBLIC "-//W3C//DTD SVG 1.1//EN"
  "http://www.w3.org/Graphics/SVG/1.1/DTD/svg11.dtd">
<svg height="345.6pt" version="1.1" viewBox="0 0 460.8 345.6" width="460.8pt" xmlns="http://www.w3.org/2000/svg" xmlns:xlink="http://www.w3.org/1999/xlink">
 <metadata>
  <rdf:RDF xmlns:cc="http://creativecommons.org/ns#" xmlns:dc="http://purl.org/dc/elements/1.1/" xmlns:rdf="http://www.w3.org/1999/02/22-rdf-syntax-ns#">
   <cc:Work>
    <dc:type rdf:resource="http://purl.org/dc/dcmitype/StillImage"/>
    <dc:date>2023-02-14T19:41:54.366934</dc:date>
    <dc:format>image/svg+xml</dc:format>
    <dc:creator>
     <cc:Agent>
      <dc:title>Matplotlib v3.4.2, https://matplotlib.org/</dc:title>
     </cc:Agent>
    </dc:creator>
   </cc:Work>
  </rdf:RDF>
 </metadata>
 <defs>
  <style type="text/css">*{stroke-linecap:butt;stroke-linejoin:round;}</style>
 </defs>
 <g id="figure_1">
  <g id="patch_1">
   <path d="M 0 345.6 
L 460.8 345.6 
L 460.8 0 
L 0 0 
z
" style="fill:none;"/>
  </g>
  <g id="axes_1">
   <g id="patch_2">
    <path d="M 57.6 307.584 
L 414.72 307.584 
L 414.72 41.472 
L 57.6 41.472 
z
" style="fill:none;"/>
   </g>
   <g id="matplotlib.axis_1">
    <g id="xtick_1">
     <g id="line2d_1">
      <defs>
       <path d="M 0 0 
L 0 3.5 
" id="mded856251c" style="stroke:#000000;stroke-width:0.8;"/>
      </defs>
      <g>
       <use style="stroke:#000000;stroke-width:0.8;" x="73.832727" xlink:href="#mded856251c" y="307.584"/>
      </g>
     </g>
     <g id="text_1">
      <!-- 100 -->
      <g transform="translate(64.288977 322.182437)scale(0.1 -0.1)">
       <defs>
        <path d="M 794 531 
L 1825 531 
L 1825 4091 
L 703 3866 
L 703 4441 
L 1819 4666 
L 2450 4666 
L 2450 531 
L 3481 531 
L 3481 0 
L 794 0 
L 794 531 
z
" id="DejaVuSans-31" transform="scale(0.015625)"/>
        <path d="M 2034 4250 
Q 1547 4250 1301 3770 
Q 1056 3291 1056 2328 
Q 1056 1369 1301 889 
Q 1547 409 2034 409 
Q 2525 409 2770 889 
Q 3016 1369 3016 2328 
Q 3016 3291 2770 3770 
Q 2525 4250 2034 4250 
z
M 2034 4750 
Q 2819 4750 3233 4129 
Q 3647 3509 3647 2328 
Q 3647 1150 3233 529 
Q 2819 -91 2034 -91 
Q 1250 -91 836 529 
Q 422 1150 422 2328 
Q 422 3509 836 4129 
Q 1250 4750 2034 4750 
z
" id="DejaVuSans-30" transform="scale(0.015625)"/>
       </defs>
       <use xlink:href="#DejaVuSans-31"/>
       <use x="63.623047" xlink:href="#DejaVuSans-30"/>
       <use x="127.246094" xlink:href="#DejaVuSans-30"/>
      </g>
     </g>
    </g>
    <g id="xtick_2">
     <g id="line2d_2">
      <g>
       <use style="stroke:#000000;stroke-width:0.8;" x="114.414545" xlink:href="#mded856251c" y="307.584"/>
      </g>
     </g>
     <g id="text_2">
      <!-- 125 -->
      <g transform="translate(104.870795 322.182437)scale(0.1 -0.1)">
       <defs>
        <path d="M 1228 531 
L 3431 531 
L 3431 0 
L 469 0 
L 469 531 
Q 828 903 1448 1529 
Q 2069 2156 2228 2338 
Q 2531 2678 2651 2914 
Q 2772 3150 2772 3378 
Q 2772 3750 2511 3984 
Q 2250 4219 1831 4219 
Q 1534 4219 1204 4116 
Q 875 4013 500 3803 
L 500 4441 
Q 881 4594 1212 4672 
Q 1544 4750 1819 4750 
Q 2544 4750 2975 4387 
Q 3406 4025 3406 3419 
Q 3406 3131 3298 2873 
Q 3191 2616 2906 2266 
Q 2828 2175 2409 1742 
Q 1991 1309 1228 531 
z
" id="DejaVuSans-32" transform="scale(0.015625)"/>
        <path d="M 691 4666 
L 3169 4666 
L 3169 4134 
L 1269 4134 
L 1269 2991 
Q 1406 3038 1543 3061 
Q 1681 3084 1819 3084 
Q 2600 3084 3056 2656 
Q 3513 2228 3513 1497 
Q 3513 744 3044 326 
Q 2575 -91 1722 -91 
Q 1428 -91 1123 -41 
Q 819 9 494 109 
L 494 744 
Q 775 591 1075 516 
Q 1375 441 1709 441 
Q 2250 441 2565 725 
Q 2881 1009 2881 1497 
Q 2881 1984 2565 2268 
Q 2250 2553 1709 2553 
Q 1456 2553 1204 2497 
Q 953 2441 691 2322 
L 691 4666 
z
" id="DejaVuSans-35" transform="scale(0.015625)"/>
       </defs>
       <use xlink:href="#DejaVuSans-31"/>
       <use x="63.623047" xlink:href="#DejaVuSans-32"/>
       <use x="127.246094" xlink:href="#DejaVuSans-35"/>
      </g>
     </g>
    </g>
    <g id="xtick_3">
     <g id="line2d_3">
      <g>
       <use style="stroke:#000000;stroke-width:0.8;" x="154.996364" xlink:href="#mded856251c" y="307.584"/>
      </g>
     </g>
     <g id="text_3">
      <!-- 150 -->
      <g transform="translate(145.452614 322.182437)scale(0.1 -0.1)">
       <use xlink:href="#DejaVuSans-31"/>
       <use x="63.623047" xlink:href="#DejaVuSans-35"/>
       <use x="127.246094" xlink:href="#DejaVuSans-30"/>
      </g>
     </g>
    </g>
    <g id="xtick_4">
     <g id="line2d_4">
      <g>
       <use style="stroke:#000000;stroke-width:0.8;" x="195.578182" xlink:href="#mded856251c" y="307.584"/>
      </g>
     </g>
     <g id="text_4">
      <!-- 175 -->
      <g transform="translate(186.034432 322.182437)scale(0.1 -0.1)">
       <defs>
        <path d="M 525 4666 
L 3525 4666 
L 3525 4397 
L 1831 0 
L 1172 0 
L 2766 4134 
L 525 4134 
L 525 4666 
z
" id="DejaVuSans-37" transform="scale(0.015625)"/>
       </defs>
       <use xlink:href="#DejaVuSans-31"/>
       <use x="63.623047" xlink:href="#DejaVuSans-37"/>
       <use x="127.246094" xlink:href="#DejaVuSans-35"/>
      </g>
     </g>
    </g>
    <g id="xtick_5">
     <g id="line2d_5">
      <g>
       <use style="stroke:#000000;stroke-width:0.8;" x="236.16" xlink:href="#mded856251c" y="307.584"/>
      </g>
     </g>
     <g id="text_5">
      <!-- 200 -->
      <g transform="translate(226.61625 322.182437)scale(0.1 -0.1)">
       <use xlink:href="#DejaVuSans-32"/>
       <use x="63.623047" xlink:href="#DejaVuSans-30"/>
       <use x="127.246094" xlink:href="#DejaVuSans-30"/>
      </g>
     </g>
    </g>
    <g id="xtick_6">
     <g id="line2d_6">
      <g>
       <use style="stroke:#000000;stroke-width:0.8;" x="276.741818" xlink:href="#mded856251c" y="307.584"/>
      </g>
     </g>
     <g id="text_6">
      <!-- 225 -->
      <g transform="translate(267.198068 322.182437)scale(0.1 -0.1)">
       <use xlink:href="#DejaVuSans-32"/>
       <use x="63.623047" xlink:href="#DejaVuSans-32"/>
       <use x="127.246094" xlink:href="#DejaVuSans-35"/>
      </g>
     </g>
    </g>
    <g id="xtick_7">
     <g id="line2d_7">
      <g>
       <use style="stroke:#000000;stroke-width:0.8;" x="317.323636" xlink:href="#mded856251c" y="307.584"/>
      </g>
     </g>
     <g id="text_7">
      <!-- 250 -->
      <g transform="translate(307.779886 322.182437)scale(0.1 -0.1)">
       <use xlink:href="#DejaVuSans-32"/>
       <use x="63.623047" xlink:href="#DejaVuSans-35"/>
       <use x="127.246094" xlink:href="#DejaVuSans-30"/>
      </g>
     </g>
    </g>
    <g id="xtick_8">
     <g id="line2d_8">
      <g>
       <use style="stroke:#000000;stroke-width:0.8;" x="357.905455" xlink:href="#mded856251c" y="307.584"/>
      </g>
     </g>
     <g id="text_8">
      <!-- 275 -->
      <g transform="translate(348.361705 322.182437)scale(0.1 -0.1)">
       <use xlink:href="#DejaVuSans-32"/>
       <use x="63.623047" xlink:href="#DejaVuSans-37"/>
       <use x="127.246094" xlink:href="#DejaVuSans-35"/>
      </g>
     </g>
    </g>
    <g id="xtick_9">
     <g id="line2d_9">
      <g>
       <use style="stroke:#000000;stroke-width:0.8;" x="398.487273" xlink:href="#mded856251c" y="307.584"/>
      </g>
     </g>
     <g id="text_9">
      <!-- 300 -->
      <g transform="translate(388.943523 322.182437)scale(0.1 -0.1)">
       <defs>
        <path d="M 2597 2516 
Q 3050 2419 3304 2112 
Q 3559 1806 3559 1356 
Q 3559 666 3084 287 
Q 2609 -91 1734 -91 
Q 1441 -91 1130 -33 
Q 819 25 488 141 
L 488 750 
Q 750 597 1062 519 
Q 1375 441 1716 441 
Q 2309 441 2620 675 
Q 2931 909 2931 1356 
Q 2931 1769 2642 2001 
Q 2353 2234 1838 2234 
L 1294 2234 
L 1294 2753 
L 1863 2753 
Q 2328 2753 2575 2939 
Q 2822 3125 2822 3475 
Q 2822 3834 2567 4026 
Q 2313 4219 1838 4219 
Q 1578 4219 1281 4162 
Q 984 4106 628 3988 
L 628 4550 
Q 988 4650 1302 4700 
Q 1616 4750 1894 4750 
Q 2613 4750 3031 4423 
Q 3450 4097 3450 3541 
Q 3450 3153 3228 2886 
Q 3006 2619 2597 2516 
z
" id="DejaVuSans-33" transform="scale(0.015625)"/>
       </defs>
       <use xlink:href="#DejaVuSans-33"/>
       <use x="63.623047" xlink:href="#DejaVuSans-30"/>
       <use x="127.246094" xlink:href="#DejaVuSans-30"/>
      </g>
     </g>
    </g>
    <g id="text_10">
     <!-- 样本数 -->
     <g transform="translate(209.16 342.769)scale(0.18 -0.18)">
      <defs>
       <path d="M 5133 1261 
Q 5197 1382 5315 1568 
Q 5434 1754 5456 1776 
Q 5478 1798 5504 1798 
Q 5574 1798 5939 1488 
Q 6304 1178 6304 1114 
Q 6304 1050 6182 1050 
L 4589 1050 
L 4589 173 
Q 4589 -141 4595 -262 
L 4602 -499 
Q 4602 -550 4573 -572 
Q 4544 -595 4368 -643 
Q 4192 -691 4009 -691 
Q 3827 -691 3795 -672 
Q 3763 -653 3763 -585 
Q 3763 -518 3776 -304 
Q 3789 -90 3789 230 
L 3789 1050 
L 2758 1050 
Q 2630 1050 2528 979 
L 2362 1280 
Q 2515 1261 2682 1261 
L 3789 1261 
L 3789 2368 
L 3008 2368 
Q 3021 2298 3021 2259 
Q 3021 2067 2886 1936 
Q 2752 1805 2608 1805 
Q 2464 1805 2371 1891 
Q 2278 1978 2278 2176 
Q 2278 2701 2016 2874 
L 2016 -480 
Q 2016 -538 1977 -570 
Q 1939 -602 1811 -637 
Q 1683 -672 1523 -672 
Q 1363 -672 1318 -659 
Q 1274 -646 1274 -589 
L 1286 -326 
Q 1293 -58 1293 269 
L 1293 1946 
Q 1043 1510 656 1139 
Q 269 768 211 768 
Q 205 768 205 774 
Q 205 800 256 877 
Q 691 1478 921 2124 
Q 1152 2771 1274 3571 
L 646 3571 
Q 518 3571 416 3501 
L 250 3802 
Q 403 3782 570 3782 
L 1293 3782 
L 1293 4557 
Q 1293 4979 1274 5286 
Q 1530 5280 1811 5241 
Q 2093 5203 2141 5174 
Q 2189 5146 2189 5107 
Q 2189 5024 2016 4947 
L 2016 3782 
L 2112 3782 
Q 2170 3898 2272 4058 
Q 2374 4218 2393 4237 
Q 2413 4256 2441 4256 
Q 2470 4256 2633 4131 
Q 2797 4006 3021 3770 
L 4365 3770 
Q 4634 4570 4742 5306 
Q 5792 5043 5792 4902 
Q 5792 4845 5680 4816 
Q 5568 4787 5334 4579 
Q 5101 4371 4538 3770 
L 5069 3770 
Q 5120 3866 5229 4032 
Q 5338 4198 5357 4217 
Q 5376 4237 5408 4237 
Q 5504 4237 5824 3968 
Q 6144 3699 6144 3628 
Q 6144 3558 6029 3558 
L 4698 3558 
Q 4659 3514 4589 3482 
L 4589 2579 
L 4890 2579 
Q 5107 2995 5142 3040 
Q 5178 3085 5216 3085 
Q 5306 3085 5632 2787 
Q 5958 2490 5958 2429 
Q 5958 2368 5843 2368 
L 4589 2368 
L 4589 1261 
L 5133 1261 
z
M 3789 2579 
L 3789 3558 
L 2650 3558 
Q 2522 3558 2419 3488 
L 2374 3571 
L 2016 3571 
L 2016 2989 
Q 2688 2893 2912 2579 
L 3789 2579 
z
M 2970 5126 
Q 3501 5126 3830 4931 
Q 4160 4736 4160 4397 
Q 4160 4198 4025 4064 
Q 3891 3930 3680 3930 
Q 3392 3930 3373 4269 
Q 3334 4851 2963 5037 
Q 2880 5082 2880 5104 
Q 2880 5126 2970 5126 
z
" id="STSongti-SC-Black-6837" transform="scale(0.015625)"/>
       <path d="M 3738 3827 
L 4928 3827 
Q 4966 3898 5110 4125 
Q 5254 4352 5283 4377 
Q 5312 4403 5344 4403 
Q 5427 4403 5792 4070 
Q 6157 3738 6157 3677 
Q 6157 3616 6029 3616 
L 4064 3616 
Q 4422 2726 4937 2208 
Q 5453 1690 6342 1376 
Q 6426 1344 6426 1321 
Q 6426 1299 6266 1251 
Q 6106 1203 5955 1062 
Q 5805 922 5651 666 
Q 5619 608 5568 608 
Q 5453 608 4925 1126 
Q 4397 1645 4160 2224 
Q 3923 2803 3885 3616 
L 3738 3616 
L 3738 1197 
L 3917 1197 
L 4096 1504 
Q 4160 1619 4214 1619 
Q 4269 1619 4560 1369 
Q 4851 1120 4851 1053 
Q 4851 986 4691 986 
L 3738 986 
L 3738 -416 
Q 3738 -493 3696 -534 
Q 3654 -576 3446 -630 
Q 3238 -685 2982 -685 
Q 2925 -685 2925 -614 
L 2931 -352 
Q 2944 -83 2944 243 
L 2944 986 
L 2029 986 
Q 1901 986 1798 915 
L 1632 1216 
Q 1786 1197 1952 1197 
L 2944 1197 
L 2944 3264 
Q 2662 2362 2169 1802 
Q 1677 1242 1053 909 
Q 429 576 320 576 
Q 288 576 288 608 
Q 288 640 365 691 
Q 1050 1184 1478 1869 
Q 1907 2554 2195 3616 
L 806 3616 
Q 678 3616 576 3546 
L 410 3846 
Q 563 3827 730 3827 
L 2944 3827 
L 2944 4570 
Q 2944 4992 2925 5299 
Q 3187 5293 3491 5257 
Q 3795 5222 3872 5190 
Q 3949 5158 3949 5114 
Q 3949 5043 3738 4947 
L 3738 3827 
z
" id="STSongti-SC-Black-672c" transform="scale(0.015625)"/>
       <path d="M 2330 4051 
Q 2566 4378 2810 4973 
Q 3059 4877 3302 4729 
Q 3546 4582 3546 4515 
Q 3546 4448 3414 4435 
Q 3283 4422 3120 4336 
Q 2957 4250 2330 3827 
L 2330 3738 
L 2784 3738 
Q 3014 4141 3091 4141 
Q 3149 4141 3385 3920 
Q 3622 3699 3622 3612 
Q 3622 3526 3456 3526 
L 2330 3526 
L 2330 3373 
Q 2790 3290 3033 3120 
Q 3277 2950 3277 2771 
Q 3277 2592 3165 2467 
Q 3053 2342 2928 2342 
Q 2803 2342 2736 2406 
Q 2669 2470 2630 2637 
Q 2560 2989 2330 3226 
L 2330 3053 
Q 2330 2842 2342 2605 
L 2349 2387 
Q 2349 2336 2320 2313 
Q 2291 2291 2118 2208 
Q 2285 2131 2304 2102 
Q 2323 2074 2323 2054 
Q 2323 1990 2227 1971 
Q 2150 1952 2010 1728 
L 2381 1728 
Q 2496 1939 2544 2003 
Q 2592 2067 2637 2067 
Q 2682 2067 3066 1843 
Q 3834 3072 3898 5261 
Q 4294 5210 4569 5142 
Q 4845 5075 4899 5043 
Q 4954 5011 4954 4966 
Q 4954 4909 4880 4873 
Q 4806 4838 4761 4742 
Q 4717 4646 4617 4352 
Q 4518 4058 4346 3648 
L 5184 3648 
Q 5466 4192 5552 4192 
Q 5638 4192 5856 4009 
Q 6074 3827 6182 3721 
Q 6291 3616 6291 3539 
Q 6291 3437 6170 3437 
L 5466 3437 
Q 5811 3366 5811 3264 
Q 5811 3206 5737 3171 
Q 5664 3136 5622 3024 
Q 5581 2912 5501 2541 
Q 5421 2170 5232 1674 
Q 5043 1178 4851 890 
Q 5325 454 6246 141 
Q 6323 115 6323 83 
Q 6323 51 6214 32 
Q 6106 13 5872 -179 
Q 5638 -371 5517 -550 
Q 5478 -608 5433 -608 
Q 5389 -608 5347 -582 
Q 5306 -557 5088 -361 
Q 4870 -166 4700 19 
Q 4531 205 4403 384 
Q 3866 -141 3232 -441 
Q 2598 -742 2490 -742 
Q 2458 -742 2458 -716 
Q 2458 -691 2534 -646 
Q 3693 0 4166 762 
Q 3808 1446 3776 2566 
Q 3520 2163 3168 1773 
Q 3398 1651 3398 1568 
Q 3398 1485 3299 1449 
Q 3200 1414 3165 1379 
Q 3130 1344 3024 1123 
Q 2918 902 2746 659 
Q 2854 621 3014 525 
Q 3174 429 3225 304 
Q 3277 179 3277 60 
Q 3277 -58 3158 -170 
Q 3040 -282 2902 -282 
Q 2765 -282 2592 -109 
Q 2419 64 2285 173 
Q 1830 -192 1126 -419 
Q 422 -646 307 -646 
Q 262 -646 262 -624 
Q 262 -602 333 -576 
Q 1306 -198 1862 448 
Q 1498 634 787 800 
Q 1011 1184 1178 1517 
L 755 1517 
Q 627 1517 525 1446 
L 352 1747 
Q 506 1728 672 1728 
L 1280 1728 
Q 1376 1920 1574 2394 
L 1645 2374 
L 1645 3021 
Q 1325 2554 848 2214 
Q 371 1875 288 1875 
Q 275 1875 275 1888 
Q 275 1914 358 1997 
Q 960 2560 1299 3526 
L 755 3526 
Q 589 3526 480 3494 
L 371 3770 
Q 506 3738 691 3738 
L 1645 3738 
L 1645 4698 
Q 1645 5018 1632 5267 
Q 1978 5235 2179 5196 
Q 2381 5158 2419 5129 
Q 2458 5101 2458 5053 
Q 2458 5005 2330 4954 
L 2330 4051 
z
M 4851 3437 
L 4250 3437 
Q 4141 3181 3942 2842 
Q 4058 1952 4454 1357 
Q 4787 2176 4851 3437 
z
M 1888 1517 
L 1549 928 
Q 1850 902 2144 838 
Q 2330 1165 2413 1517 
L 1888 1517 
z
M 563 4806 
Q 947 4806 1238 4646 
Q 1530 4486 1530 4294 
Q 1530 4102 1437 3984 
Q 1344 3866 1203 3866 
Q 1062 3866 998 3926 
Q 934 3987 922 4134 
Q 883 4518 557 4742 
Q 512 4774 512 4790 
Q 512 4806 563 4806 
z
" id="STSongti-SC-Black-6570" transform="scale(0.015625)"/>
      </defs>
      <use xlink:href="#STSongti-SC-Black-6837"/>
      <use x="99.999985" xlink:href="#STSongti-SC-Black-672c"/>
      <use x="199.999969" xlink:href="#STSongti-SC-Black-6570"/>
     </g>
    </g>
   </g>
   <g id="matplotlib.axis_2">
    <g id="ytick_1">
     <g id="line2d_10">
      <defs>
       <path d="M 0 0 
L -3.5 0 
" id="m7da674685e" style="stroke:#000000;stroke-width:0.8;"/>
      </defs>
      <g>
       <use style="stroke:#000000;stroke-width:0.8;" x="57.6" xlink:href="#m7da674685e" y="300.091129"/>
      </g>
     </g>
     <g id="text_11">
      <!-- 100 -->
      <g transform="translate(31.5125 303.890348)scale(0.1 -0.1)">
       <use xlink:href="#DejaVuSans-31"/>
       <use x="63.623047" xlink:href="#DejaVuSans-30"/>
       <use x="127.246094" xlink:href="#DejaVuSans-30"/>
      </g>
     </g>
    </g>
    <g id="ytick_2">
     <g id="line2d_11">
      <g>
       <use style="stroke:#000000;stroke-width:0.8;" x="57.6" xlink:href="#m7da674685e" y="248.945252"/>
      </g>
     </g>
     <g id="text_12">
      <!-- 200 -->
      <g transform="translate(31.5125 252.74447)scale(0.1 -0.1)">
       <use xlink:href="#DejaVuSans-32"/>
       <use x="63.623047" xlink:href="#DejaVuSans-30"/>
       <use x="127.246094" xlink:href="#DejaVuSans-30"/>
      </g>
     </g>
    </g>
    <g id="ytick_3">
     <g id="line2d_12">
      <g>
       <use style="stroke:#000000;stroke-width:0.8;" x="57.6" xlink:href="#m7da674685e" y="197.799374"/>
      </g>
     </g>
     <g id="text_13">
      <!-- 300 -->
      <g transform="translate(31.5125 201.598593)scale(0.1 -0.1)">
       <use xlink:href="#DejaVuSans-33"/>
       <use x="63.623047" xlink:href="#DejaVuSans-30"/>
       <use x="127.246094" xlink:href="#DejaVuSans-30"/>
      </g>
     </g>
    </g>
    <g id="ytick_4">
     <g id="line2d_13">
      <g>
       <use style="stroke:#000000;stroke-width:0.8;" x="57.6" xlink:href="#m7da674685e" y="146.653497"/>
      </g>
     </g>
     <g id="text_14">
      <!-- 400 -->
      <g transform="translate(31.5125 150.452716)scale(0.1 -0.1)">
       <defs>
        <path d="M 2419 4116 
L 825 1625 
L 2419 1625 
L 2419 4116 
z
M 2253 4666 
L 3047 4666 
L 3047 1625 
L 3713 1625 
L 3713 1100 
L 3047 1100 
L 3047 0 
L 2419 0 
L 2419 1100 
L 313 1100 
L 313 1709 
L 2253 4666 
z
" id="DejaVuSans-34" transform="scale(0.015625)"/>
       </defs>
       <use xlink:href="#DejaVuSans-34"/>
       <use x="63.623047" xlink:href="#DejaVuSans-30"/>
       <use x="127.246094" xlink:href="#DejaVuSans-30"/>
      </g>
     </g>
    </g>
    <g id="ytick_5">
     <g id="line2d_14">
      <g>
       <use style="stroke:#000000;stroke-width:0.8;" x="57.6" xlink:href="#m7da674685e" y="95.507619"/>
      </g>
     </g>
     <g id="text_15">
      <!-- 500 -->
      <g transform="translate(31.5125 99.306838)scale(0.1 -0.1)">
       <use xlink:href="#DejaVuSans-35"/>
       <use x="63.623047" xlink:href="#DejaVuSans-30"/>
       <use x="127.246094" xlink:href="#DejaVuSans-30"/>
      </g>
     </g>
    </g>
    <g id="ytick_6">
     <g id="line2d_15">
      <g>
       <use style="stroke:#000000;stroke-width:0.8;" x="57.6" xlink:href="#m7da674685e" y="44.361742"/>
      </g>
     </g>
     <g id="text_16">
      <!-- 600 -->
      <g transform="translate(31.5125 48.160961)scale(0.1 -0.1)">
       <defs>
        <path d="M 2113 2584 
Q 1688 2584 1439 2293 
Q 1191 2003 1191 1497 
Q 1191 994 1439 701 
Q 1688 409 2113 409 
Q 2538 409 2786 701 
Q 3034 994 3034 1497 
Q 3034 2003 2786 2293 
Q 2538 2584 2113 2584 
z
M 3366 4563 
L 3366 3988 
Q 3128 4100 2886 4159 
Q 2644 4219 2406 4219 
Q 1781 4219 1451 3797 
Q 1122 3375 1075 2522 
Q 1259 2794 1537 2939 
Q 1816 3084 2150 3084 
Q 2853 3084 3261 2657 
Q 3669 2231 3669 1497 
Q 3669 778 3244 343 
Q 2819 -91 2113 -91 
Q 1303 -91 875 529 
Q 447 1150 447 2328 
Q 447 3434 972 4092 
Q 1497 4750 2381 4750 
Q 2619 4750 2861 4703 
Q 3103 4656 3366 4563 
z
" id="DejaVuSans-36" transform="scale(0.015625)"/>
       </defs>
       <use xlink:href="#DejaVuSans-36"/>
       <use x="63.623047" xlink:href="#DejaVuSans-30"/>
       <use x="127.246094" xlink:href="#DejaVuSans-30"/>
      </g>
     </g>
    </g>
    <g id="text_17">
     <!-- RF距离 -->
     <g transform="translate(25.009375 204.219562)rotate(-90)scale(0.18 -0.18)">
      <defs>
       <path d="M 160 544 
L 365 582 
Q 550 602 611 656 
Q 672 710 672 915 
L 672 3763 
Q 672 3859 665 3932 
Q 659 4006 624 4054 
Q 589 4102 518 4131 
Q 448 4160 320 4173 
L 186 4186 
Q 186 4237 182 4285 
Q 179 4333 179 4384 
Q 307 4384 377 4384 
Q 448 4384 493 4387 
Q 538 4390 573 4396 
Q 608 4403 672 4403 
L 1645 4448 
Q 1709 4448 1769 4451 
Q 1830 4454 1888 4454 
Q 2227 4454 2528 4406 
Q 2829 4358 3056 4240 
Q 3283 4122 3417 3923 
Q 3552 3725 3552 3430 
Q 3552 3238 3497 3100 
Q 3443 2963 3340 2851 
Q 3238 2739 3088 2649 
Q 2938 2560 2746 2464 
L 3424 1312 
Q 3578 1050 3686 912 
Q 3795 774 3900 704 
Q 4006 634 4124 611 
Q 4243 589 4410 563 
L 4410 378 
Q 4275 384 4118 384 
Q 3962 384 3782 384 
Q 3693 384 3561 384 
Q 3430 384 3302 384 
Q 3174 384 3072 381 
Q 2970 378 2938 378 
L 2016 2125 
Q 1952 2221 1878 2272 
Q 1805 2323 1696 2323 
L 1498 2323 
L 1498 954 
Q 1498 800 1558 729 
Q 1619 659 1773 621 
L 2086 544 
L 2086 358 
Q 1856 371 1597 377 
Q 1338 384 1085 384 
Q 832 384 592 377 
Q 352 371 160 358 
L 160 544 
z
M 1498 2573 
Q 1824 2560 2045 2614 
Q 2266 2669 2400 2768 
Q 2534 2867 2592 3011 
Q 2650 3155 2650 3328 
Q 2650 3731 2458 3948 
Q 2266 4166 1773 4166 
Q 1722 4166 1638 4163 
Q 1555 4160 1498 4154 
L 1498 2573 
z
" id="STSongti-SC-Black-52" transform="scale(0.015625)"/>
       <path d="M 2118 358 
Q 1894 371 1625 377 
Q 1357 384 1094 384 
Q 832 384 569 377 
Q 307 371 160 358 
L 160 589 
L 550 634 
Q 659 646 694 694 
Q 730 742 730 864 
L 730 3885 
Q 730 4026 701 4093 
Q 672 4160 570 4173 
L 211 4218 
L 211 4397 
Q 358 4390 1017 4387 
Q 1677 4384 2746 4384 
Q 3034 4384 3238 4387 
Q 3443 4390 3584 4397 
Q 3584 4358 3581 4288 
Q 3578 4218 3574 4134 
Q 3571 4051 3571 3968 
Q 3571 3885 3571 3808 
Q 3571 3661 3571 3545 
Q 3571 3430 3578 3347 
L 3430 3347 
Q 3354 3590 3299 3734 
Q 3245 3878 3190 3955 
Q 3136 4032 3069 4054 
Q 3002 4077 2899 4077 
L 1734 4077 
Q 1626 4077 1587 4016 
Q 1549 3955 1549 3808 
L 1549 2579 
L 2675 2579 
Q 2790 2579 2832 2614 
Q 2874 2650 2899 2771 
L 3002 3162 
L 3162 3162 
Q 3155 3040 3152 2883 
Q 3149 2726 3149 2522 
Q 3149 2118 3168 1747 
L 3021 1747 
L 2886 2150 
Q 2867 2214 2844 2252 
Q 2822 2291 2784 2307 
Q 2746 2323 2685 2326 
Q 2624 2330 2528 2330 
L 1549 2330 
L 1549 870 
Q 1549 781 1561 739 
Q 1574 698 1603 675 
Q 1632 653 1677 646 
Q 1722 640 1792 634 
L 2118 589 
L 2118 358 
z
" id="STSongti-SC-Black-46" transform="scale(0.015625)"/>
       <path d="M 4032 4602 
L 5107 4602 
Q 5280 4909 5344 4998 
Q 5408 5088 5453 5088 
Q 5498 5088 5690 4950 
Q 5882 4813 6026 4697 
Q 6170 4582 6170 4499 
Q 6170 4390 5952 4390 
L 4058 4390 
Q 4019 4333 3942 4314 
L 3942 3162 
L 4979 3162 
Q 5082 3366 5142 3449 
Q 5203 3533 5242 3533 
Q 5312 3533 5680 3302 
Q 6048 3072 6048 2979 
Q 6048 2886 5850 2835 
L 5850 1805 
L 5856 1453 
Q 5856 1376 5661 1296 
Q 5466 1216 5146 1216 
Q 5069 1216 5069 1325 
L 5069 1466 
L 3942 1466 
L 3942 -160 
L 5216 -160 
Q 5363 102 5446 224 
Q 5530 346 5574 346 
Q 5632 346 5814 195 
Q 5997 45 6144 -83 
Q 6291 -211 6291 -291 
Q 6291 -371 6131 -371 
L 3942 -371 
L 3808 -550 
Q 3763 -608 3721 -608 
Q 3680 -608 3529 -534 
Q 3379 -461 3209 -349 
Q 3040 -237 3021 -208 
Q 3002 -179 3002 -140 
Q 3002 -102 3040 -77 
Q 3174 6 3209 57 
Q 3245 109 3245 224 
L 3245 710 
Q 851 -282 627 -429 
Q 570 -461 541 -461 
Q 512 -461 493 -422 
L 384 -154 
Q 294 83 211 365 
Q 480 390 608 410 
L 608 1811 
Q 608 2150 595 2394 
Q 1363 2310 1363 2195 
Q 1363 2150 1267 2106 
L 1267 493 
Q 1408 506 1638 544 
L 1638 2118 
Q 1638 2432 1626 2669 
Q 1894 2662 2124 2627 
Q 2355 2592 2387 2569 
Q 2419 2547 2419 2502 
Q 2419 2458 2310 2400 
L 2310 1766 
L 2438 1766 
Q 2560 1978 2630 2090 
Q 2701 2202 2746 2202 
Q 2829 2202 3245 1786 
L 3245 4371 
Q 3245 4640 3226 4915 
Q 3686 4794 4032 4602 
z
M 5069 1677 
L 5069 2950 
L 3942 2950 
L 3942 1677 
L 5069 1677 
z
M 3245 819 
L 3245 1555 
L 2310 1555 
L 2310 646 
L 3245 819 
z
M 1376 4666 
L 2061 4666 
Q 2227 4960 2291 4960 
Q 2355 4960 2707 4758 
Q 3059 4557 3059 4473 
Q 3059 4390 2842 4320 
L 2842 3488 
Q 2842 3149 2848 3053 
L 2854 2874 
Q 2854 2778 2640 2723 
Q 2426 2669 2221 2669 
Q 2176 2669 2163 2701 
Q 2150 2733 2150 2816 
L 2150 3078 
L 1440 3078 
L 1440 2880 
Q 1440 2829 1408 2803 
Q 1376 2778 1267 2730 
Q 1158 2682 995 2662 
Q 832 2643 784 2643 
Q 736 2643 736 2694 
L 749 2976 
Q 762 3168 762 3328 
L 762 4358 
Q 762 4640 742 4915 
Q 1101 4800 1376 4666 
z
M 2150 3290 
L 2150 4454 
L 1536 4454 
Q 1510 4403 1440 4384 
L 1440 3290 
L 2150 3290 
z
" id="STSongti-SC-Black-8ddd" transform="scale(0.015625)"/>
       <path d="M 3040 4282 
Q 2861 4371 2851 4595 
Q 2842 4819 2762 4931 
Q 2682 5043 2550 5110 
Q 2419 5178 2419 5210 
Q 2419 5261 2812 5261 
Q 3206 5261 3468 5110 
Q 3731 4960 3731 4742 
Q 3731 4384 3366 4282 
L 4986 4282 
Q 5165 4627 5235 4732 
Q 5306 4838 5357 4838 
Q 5459 4838 5824 4528 
Q 6189 4218 6189 4144 
Q 6189 4070 6061 4070 
L 3725 4070 
Q 3942 3987 4131 3881 
Q 4320 3776 4320 3725 
Q 4320 3674 4205 3658 
Q 4090 3642 3731 3360 
Q 4038 3187 4201 2998 
Q 4365 2810 4365 2650 
Q 4365 2490 4269 2394 
L 4563 2394 
L 4563 3597 
Q 4563 3738 4550 3936 
Q 5043 3885 5235 3843 
Q 5427 3802 5427 3744 
Q 5427 3686 5312 3629 
L 5312 2509 
Q 5312 2374 5318 2317 
L 5325 2202 
Q 5325 2118 5091 2051 
Q 4858 1984 4672 1984 
Q 4563 1984 4563 2054 
L 4563 2182 
L 3757 2182 
Q 3699 2125 3625 2089 
Q 3552 2054 3213 1632 
L 4864 1632 
Q 4973 1843 5024 1897 
Q 5075 1952 5120 1952 
Q 5197 1952 5507 1760 
Q 5818 1568 5891 1501 
Q 5965 1434 5965 1376 
Q 5965 1280 5760 1203 
L 5760 77 
Q 5760 -186 5702 -317 
Q 5645 -448 5520 -528 
Q 5395 -608 5174 -665 
Q 4954 -723 4842 -723 
Q 4730 -723 4698 -563 
Q 4666 -397 4493 -269 
Q 4320 -141 4131 -109 
Q 3942 -77 3942 -45 
Q 3942 -13 4051 -13 
L 4410 -26 
Q 4768 -26 4873 60 
Q 4979 147 4979 378 
L 4979 1421 
L 3027 1421 
Q 2752 1120 2330 774 
L 3667 806 
Q 3539 1056 3309 1242 
Q 3226 1306 3226 1322 
Q 3226 1338 3251 1338 
Q 3315 1338 3603 1254 
Q 3891 1171 4089 1059 
Q 4288 947 4387 819 
Q 4486 691 4486 563 
Q 4486 358 4368 243 
Q 4250 128 4080 128 
Q 3910 128 3840 211 
Q 3770 294 3766 419 
Q 3763 544 3725 653 
Q 2554 301 2080 70 
Q 2042 51 2013 51 
Q 1984 51 1958 96 
Q 1933 141 1837 416 
Q 1741 691 1741 742 
Q 1741 794 1818 800 
Q 1939 806 2067 921 
Q 2195 1037 2432 1421 
L 1658 1421 
Q 1638 1325 1530 1312 
L 1530 -435 
Q 1530 -512 1501 -544 
Q 1472 -576 1321 -630 
Q 1171 -685 864 -685 
Q 781 -685 781 -608 
L 794 -307 
Q 806 6 806 262 
L 806 1312 
Q 806 1632 794 1882 
Q 1165 1786 1530 1632 
L 2547 1632 
Q 2669 1875 2739 2182 
L 1818 2182 
L 1728 2035 
Q 1683 1965 1619 1965 
Q 1555 1965 1276 2093 
Q 998 2221 998 2262 
Q 998 2304 1046 2352 
Q 1094 2400 1116 2454 
Q 1139 2509 1139 2624 
L 1139 3450 
Q 1139 3750 1120 3936 
Q 1523 3891 1728 3843 
Q 1933 3795 1933 3734 
Q 1933 3674 1818 3635 
L 1818 2394 
L 1971 2394 
Q 2586 2848 2950 3296 
Q 2579 3578 2163 3750 
Q 2080 3782 2080 3804 
Q 2080 3827 2150 3827 
Q 2221 3827 2550 3763 
Q 2880 3699 3174 3597 
Q 3347 3846 3456 4070 
L 653 4070 
Q 525 4070 422 4000 
L 256 4301 
Q 410 4282 576 4282 
L 3040 4282 
z
M 3296 3014 
Q 2816 2669 2202 2394 
L 3782 2394 
Q 3731 2445 3641 2608 
Q 3552 2771 3296 3014 
z
" id="STSongti-SC-Black-79bb" transform="scale(0.015625)"/>
      </defs>
      <use xlink:href="#STSongti-SC-Black-52"/>
      <use x="71.399994" xlink:href="#STSongti-SC-Black-46"/>
      <use x="129.899979" xlink:href="#STSongti-SC-Black-8ddd"/>
      <use x="229.899963" xlink:href="#STSongti-SC-Black-79bb"/>
     </g>
    </g>
   </g>
   <g id="line2d_16">
    <path clip-path="url(#p222585cdd9)" d="M 73.832727 295.488 
L 154.996364 267.357767 
L 236.16 241.784829 
L 317.323636 214.166055 
L 398.487273 176.829564 
" style="fill:none;stroke:#ff0000;stroke-linecap:square;stroke-width:1.5;"/>
    <defs>
     <path d="M 0 3 
C 0.795609 3 1.55874 2.683901 2.12132 2.12132 
C 2.683901 1.55874 3 0.795609 3 0 
C 3 -0.795609 2.683901 -1.55874 2.12132 -2.12132 
C 1.55874 -2.683901 0.795609 -3 0 -3 
C -0.795609 -3 -1.55874 -2.683901 -2.12132 -2.12132 
C -2.683901 -1.55874 -3 -0.795609 -3 0 
C -3 0.795609 -2.683901 1.55874 -2.12132 2.12132 
C -1.55874 2.683901 -0.795609 3 0 3 
z
" id="m6d9faa6655" style="stroke:#ff0000;"/>
    </defs>
    <g clip-path="url(#p222585cdd9)">
     <use style="fill:#ff0000;stroke:#ff0000;" x="73.832727" xlink:href="#m6d9faa6655" y="295.488"/>
     <use style="fill:#ff0000;stroke:#ff0000;" x="154.996364" xlink:href="#m6d9faa6655" y="267.357767"/>
     <use style="fill:#ff0000;stroke:#ff0000;" x="236.16" xlink:href="#m6d9faa6655" y="241.784829"/>
     <use style="fill:#ff0000;stroke:#ff0000;" x="317.323636" xlink:href="#m6d9faa6655" y="214.166055"/>
     <use style="fill:#ff0000;stroke:#ff0000;" x="398.487273" xlink:href="#m6d9faa6655" y="176.829564"/>
    </g>
   </g>
   <g id="line2d_17">
    <path clip-path="url(#p222585cdd9)" d="M 73.832727 255.082757 
L 154.996364 202.913962 
L 236.16 153.81392 
L 317.323636 101.645125 
L 398.487273 53.568 
" style="fill:none;stroke:#0000ff;stroke-linecap:square;stroke-width:1.5;"/>
    <defs>
     <path d="M -3 0 
L 3 0 
M 0 3 
L 0 -3 
" id="m51d018a172" style="stroke:#0000ff;"/>
    </defs>
    <g clip-path="url(#p222585cdd9)">
     <use style="fill:#0000ff;stroke:#0000ff;" x="73.832727" xlink:href="#m51d018a172" y="255.082757"/>
     <use style="fill:#0000ff;stroke:#0000ff;" x="154.996364" xlink:href="#m51d018a172" y="202.913962"/>
     <use style="fill:#0000ff;stroke:#0000ff;" x="236.16" xlink:href="#m51d018a172" y="153.81392"/>
     <use style="fill:#0000ff;stroke:#0000ff;" x="317.323636" xlink:href="#m51d018a172" y="101.645125"/>
     <use style="fill:#0000ff;stroke:#0000ff;" x="398.487273" xlink:href="#m51d018a172" y="53.568"/>
    </g>
   </g>
   <g id="line2d_18">
    <path clip-path="url(#p222585cdd9)" d="M 73.832727 274.006732 
L 154.996364 254.059839 
L 236.16 231.555653 
L 317.323636 204.448338 
L 398.487273 181.944152 
" style="fill:none;stroke:#008000;stroke-linecap:square;stroke-width:1.5;"/>
    <defs>
     <path d="M 0 -3 
L -0.673542 -0.927051 
L -2.85317 -0.927051 
L -1.089814 0.354102 
L -1.763356 2.427051 
L -0 1.145898 
L 1.763356 2.427051 
L 1.089814 0.354102 
L 2.85317 -0.927051 
L 0.673542 -0.927051 
z
" id="m3367622387" style="stroke:#008000;stroke-linejoin:bevel;"/>
    </defs>
    <g clip-path="url(#p222585cdd9)">
     <use style="fill:#008000;stroke:#008000;stroke-linejoin:bevel;" x="73.832727" xlink:href="#m3367622387" y="274.006732"/>
     <use style="fill:#008000;stroke:#008000;stroke-linejoin:bevel;" x="154.996364" xlink:href="#m3367622387" y="254.059839"/>
     <use style="fill:#008000;stroke:#008000;stroke-linejoin:bevel;" x="236.16" xlink:href="#m3367622387" y="231.555653"/>
     <use style="fill:#008000;stroke:#008000;stroke-linejoin:bevel;" x="317.323636" xlink:href="#m3367622387" y="204.448338"/>
     <use style="fill:#008000;stroke:#008000;stroke-linejoin:bevel;" x="398.487273" xlink:href="#m3367622387" y="181.944152"/>
    </g>
   </g>
   <g id="patch_3">
    <path d="M 57.6 307.584 
L 57.6 41.472 
" style="fill:none;stroke:#000000;stroke-linecap:square;stroke-linejoin:miter;stroke-width:0.8;"/>
   </g>
   <g id="patch_4">
    <path d="M 414.72 307.584 
L 414.72 41.472 
" style="fill:none;stroke:#000000;stroke-linecap:square;stroke-linejoin:miter;stroke-width:0.8;"/>
   </g>
   <g id="patch_5">
    <path d="M 57.6 307.584 
L 414.72 307.584 
" style="fill:none;stroke:#000000;stroke-linecap:square;stroke-linejoin:miter;stroke-width:0.8;"/>
   </g>
   <g id="patch_6">
    <path d="M 57.6 41.472 
L 414.72 41.472 
" style="fill:none;stroke:#000000;stroke-linecap:square;stroke-linejoin:miter;stroke-width:0.8;"/>
   </g>
   <g id="legend_1">
    <g id="patch_7">
     <path d="M 67.68 114.093 
L 200.16 114.093 
Q 203.04 114.093 203.04 111.213 
L 203.04 51.552 
Q 203.04 48.672 200.16 48.672 
L 67.68 48.672 
Q 64.8 48.672 64.8 51.552 
L 64.8 111.213 
Q 64.8 114.093 67.68 114.093 
z
" style="fill:none;opacity:0;"/>
    </g>
    <g id="line2d_19">
     <path d="M 70.56 59.76 
L 99.36 59.76 
" style="fill:none;stroke:#ff0000;stroke-linecap:square;stroke-width:1.5;"/>
    </g>
    <g id="line2d_20">
     <g>
      <use style="fill:#ff0000;stroke:#ff0000;" x="84.96" xlink:href="#m6d9faa6655" y="59.76"/>
     </g>
    </g>
    <g id="text_18">
     <!-- HPSP -->
     <g transform="translate(110.88 64.8)scale(0.144 -0.144)">
      <defs>
       <path d="M 3584 3955 
Q 3584 4090 3552 4138 
Q 3520 4186 3443 4198 
L 3136 4237 
L 3136 4403 
Q 3258 4390 3517 4384 
Q 3776 4378 4051 4378 
Q 4326 4378 4585 4384 
Q 4845 4390 4960 4403 
L 4960 4237 
L 4538 4173 
Q 4454 4160 4428 4115 
Q 4403 4070 4403 3949 
L 4403 883 
Q 4403 742 4432 691 
Q 4461 640 4576 614 
L 5037 525 
L 5037 358 
Q 4877 371 4605 377 
Q 4333 384 4070 384 
Q 3942 384 3804 384 
Q 3667 384 3536 381 
Q 3405 378 3289 371 
Q 3174 365 3091 358 
L 3091 525 
L 3456 589 
Q 3533 602 3558 666 
Q 3584 730 3584 883 
L 3584 2253 
L 1606 2253 
L 1606 883 
Q 1606 723 1632 662 
Q 1658 602 1741 589 
L 2106 525 
L 2106 358 
Q 2022 365 1907 371 
Q 1792 378 1661 381 
Q 1530 384 1389 384 
Q 1248 384 1120 384 
Q 864 384 592 377 
Q 320 371 160 358 
L 160 525 
L 621 614 
Q 723 634 755 691 
Q 787 749 787 883 
L 787 3955 
Q 787 4090 755 4138 
Q 723 4186 646 4198 
L 339 4237 
L 339 4403 
Q 461 4390 723 4384 
Q 986 4378 1274 4378 
Q 1555 4378 1817 4384 
Q 2080 4390 2195 4403 
L 2195 4237 
L 1741 4173 
Q 1658 4160 1632 4112 
Q 1606 4064 1606 3949 
L 1606 2547 
L 3584 2547 
L 3584 3955 
z
" id="STSongti-SC-Black-48" transform="scale(0.015625)"/>
       <path d="M 160 4384 
Q 474 4384 685 4387 
Q 896 4390 1005 4397 
L 1933 4448 
Q 2054 4454 2102 4454 
Q 2150 4454 2176 4454 
Q 2477 4454 2739 4387 
Q 3002 4320 3194 4176 
Q 3386 4032 3498 3808 
Q 3610 3584 3610 3277 
Q 3610 2995 3498 2784 
Q 3386 2573 3203 2429 
Q 3021 2285 2787 2214 
Q 2554 2144 2317 2144 
Q 2131 2144 1990 2195 
Q 1850 2246 1728 2368 
L 1741 2426 
Q 1824 2394 1920 2384 
Q 2016 2374 2086 2374 
Q 2246 2374 2377 2419 
Q 2509 2464 2605 2563 
Q 2701 2662 2755 2828 
Q 2810 2995 2810 3245 
Q 2810 3667 2598 3932 
Q 2387 4198 1952 4198 
Q 1862 4198 1801 4195 
Q 1741 4192 1690 4186 
Q 1638 4179 1603 4169 
Q 1568 4160 1536 4147 
L 1536 864 
Q 1536 768 1577 701 
Q 1619 634 1760 608 
L 2144 538 
L 2144 358 
Q 1875 371 1635 377 
Q 1395 384 1222 384 
Q 1024 384 816 377 
Q 608 371 288 365 
L 288 544 
L 646 614 
Q 742 634 774 685 
Q 806 736 806 858 
L 806 3744 
Q 806 3987 656 4070 
Q 506 4154 160 4192 
L 160 4384 
z
" id="STSongti-SC-Black-50" transform="scale(0.015625)"/>
       <path d="M 2355 3373 
Q 2266 3795 2051 3980 
Q 1837 4166 1466 4166 
Q 1197 4166 992 4025 
Q 787 3885 787 3635 
Q 787 3482 854 3373 
Q 922 3264 1043 3184 
Q 1165 3104 1331 3033 
Q 1498 2963 1696 2880 
Q 1990 2758 2198 2640 
Q 2406 2522 2540 2371 
Q 2675 2221 2739 2025 
Q 2803 1830 2803 1549 
Q 2803 1254 2694 1020 
Q 2586 787 2384 624 
Q 2182 461 1904 371 
Q 1626 282 1293 282 
Q 672 282 160 582 
L 230 1600 
L 371 1600 
Q 384 1389 470 1206 
Q 557 1024 697 886 
Q 838 749 1017 672 
Q 1197 595 1402 595 
Q 1562 595 1712 636 
Q 1862 678 1974 758 
Q 2086 838 2153 956 
Q 2221 1075 2221 1229 
Q 2221 1427 2150 1558 
Q 2080 1690 1942 1786 
Q 1805 1882 1603 1962 
Q 1402 2042 1146 2150 
Q 858 2272 672 2406 
Q 486 2541 380 2688 
Q 275 2835 233 2998 
Q 192 3162 192 3334 
Q 192 3635 313 3846 
Q 435 4058 633 4192 
Q 832 4326 1078 4387 
Q 1325 4448 1568 4448 
Q 2125 4448 2496 4166 
L 2470 3373 
L 2355 3373 
z
" id="STSongti-SC-Black-53" transform="scale(0.015625)"/>
      </defs>
      <use xlink:href="#STSongti-SC-Black-48"/>
      <use x="81.199982" xlink:href="#STSongti-SC-Black-50"/>
      <use x="140.099976" xlink:href="#STSongti-SC-Black-53"/>
      <use x="186.399963" xlink:href="#STSongti-SC-Black-50"/>
     </g>
    </g>
    <g id="line2d_21">
     <path d="M 70.56 80.5545 
L 99.36 80.5545 
" style="fill:none;stroke:#0000ff;stroke-linecap:square;stroke-width:1.5;"/>
    </g>
    <g id="line2d_22">
     <g>
      <use style="fill:#0000ff;stroke:#0000ff;" x="84.96" xlink:href="#m51d018a172" y="80.5545"/>
     </g>
    </g>
    <g id="text_19">
     <!-- 系统聚类 -->
     <g transform="translate(110.88 85.5945)scale(0.144 -0.144)">
      <defs>
       <path d="M 2739 4314 
Q 1126 4269 873 4269 
Q 621 4269 621 4317 
Q 621 4365 794 4378 
Q 1747 4461 3155 4713 
Q 4563 4966 5062 5178 
Q 5370 4941 5581 4733 
Q 5792 4525 5827 4480 
Q 5862 4435 5862 4397 
Q 5862 4326 5773 4326 
Q 5728 4326 5677 4346 
Q 5491 4397 5036 4397 
Q 4582 4397 3693 4352 
Q 4019 4218 4019 4147 
Q 4019 4077 3910 4070 
Q 3507 4058 2016 3347 
L 3578 3341 
Q 4192 3744 4621 4096 
Q 4845 3949 5072 3744 
Q 5299 3539 5344 3484 
Q 5389 3430 5389 3386 
Q 5389 3315 5280 3315 
Q 5248 3315 5206 3324 
Q 5165 3334 5107 3334 
Q 4909 3334 4544 3171 
Q 4179 3008 3987 2931 
Q 4832 2733 5264 2438 
Q 5696 2144 5696 1856 
Q 5696 1312 5197 1312 
Q 5069 1312 4969 1424 
Q 4870 1536 4870 1670 
Q 4870 1805 4845 1888 
L 3923 1805 
Q 3930 1779 3930 1760 
Q 3930 1696 3821 1651 
L 3821 109 
Q 3821 -237 3712 -381 
Q 3603 -525 3328 -608 
Q 3053 -691 2909 -691 
Q 2765 -691 2761 -508 
Q 2758 -326 2608 -208 
Q 2458 -90 2112 -13 
Q 2003 13 2003 45 
Q 2003 64 2028 73 
Q 2054 83 2336 83 
Q 2618 83 2774 112 
Q 2931 141 2982 208 
Q 3034 275 3034 410 
L 3034 1715 
Q 1414 1555 1235 1472 
Q 1190 1453 1155 1453 
Q 1120 1453 1085 1526 
Q 1050 1600 960 1849 
Q 870 2099 870 2147 
Q 870 2195 966 2195 
Q 1427 2208 1820 2352 
Q 2214 2496 3123 3053 
Q 2605 2970 2166 2861 
Q 1728 2752 1641 2713 
Q 1555 2675 1523 2675 
Q 1491 2675 1459 2732 
Q 1427 2790 1344 3059 
Q 1261 3328 1261 3376 
Q 1261 3424 1325 3437 
Q 1587 3488 1798 3590 
Q 2010 3693 2291 3907 
Q 2573 4122 2739 4314 
z
M 3853 2874 
Q 2784 2419 1920 2099 
L 4723 2157 
Q 4544 2458 3853 2874 
z
M 1728 1440 
Q 2048 1338 2333 1226 
Q 2618 1114 2675 1075 
Q 2733 1037 2733 992 
Q 2733 947 2579 931 
Q 2426 915 2086 646 
Q 1555 230 992 -74 
Q 429 -378 333 -378 
Q 307 -378 307 -352 
Q 307 -326 397 -262 
Q 896 134 1193 524 
Q 1491 915 1728 1440 
z
M 4058 1382 
Q 4179 1382 4723 1219 
Q 5267 1056 5577 819 
Q 5888 582 5888 288 
Q 5888 58 5747 -96 
Q 5606 -250 5376 -250 
Q 5235 -250 5126 -154 
Q 5018 -58 5005 96 
Q 4979 435 4713 777 
Q 4448 1120 4083 1299 
Q 4006 1338 4006 1360 
Q 4006 1382 4058 1382 
z
" id="STSongti-SC-Black-7cfb" transform="scale(0.015625)"/>
       <path d="M 3475 5242 
Q 4038 5242 4262 5110 
Q 4486 4979 4486 4736 
Q 4486 4493 4310 4355 
Q 4134 4218 3968 4218 
Q 3853 4218 3760 4317 
Q 3667 4416 3638 4611 
Q 3610 4806 3504 4944 
Q 3398 5082 3251 5142 
Q 3104 5203 3104 5216 
Q 3104 5242 3475 5242 
z
M 1395 2854 
Q 838 2682 550 2515 
Q 512 2490 464 2490 
Q 416 2490 377 2522 
Q 339 2554 275 2838 
Q 211 3123 211 3162 
Q 211 3277 326 3309 
Q 442 3341 496 3398 
Q 550 3456 662 3699 
Q 774 3942 899 4345 
Q 1024 4749 1101 5178 
Q 1376 5075 1670 4937 
Q 1965 4800 2013 4755 
Q 2061 4710 2061 4656 
Q 2061 4602 1933 4570 
Q 1805 4538 1465 4074 
Q 1126 3610 762 3187 
L 1594 3206 
Q 1786 3590 1933 4006 
Q 2240 3872 2509 3731 
Q 2778 3590 2810 3555 
Q 2842 3520 2842 3488 
Q 2842 3411 2726 3405 
Q 2650 3398 2547 3318 
Q 2445 3238 2317 3091 
L 1843 2566 
Q 1491 2182 1056 1728 
Q 1888 1773 2496 1773 
Q 2624 1773 2624 1753 
Q 2624 1734 2502 1696 
Q 1094 1267 691 1056 
Q 602 1011 534 1011 
Q 467 1011 444 1040 
Q 422 1069 339 1385 
Q 256 1702 256 1756 
Q 256 1811 285 1830 
Q 314 1850 416 1856 
Q 685 1882 854 2058 
Q 1024 2234 1395 2854 
z
M 3386 3974 
L 2688 3974 
Q 2560 3974 2458 3904 
L 2291 4205 
Q 2445 4186 2611 4186 
L 4934 4186 
Q 5146 4550 5216 4640 
Q 5286 4730 5331 4730 
Q 5402 4730 5747 4435 
Q 6093 4141 6093 4057 
Q 6093 3974 5965 3974 
L 4557 3974 
Q 4563 3891 4396 3849 
Q 4230 3808 3868 3459 
Q 3507 3110 3174 2861 
L 4947 2880 
Q 4730 3296 4416 3482 
Q 4339 3526 4339 3539 
Q 4339 3552 4371 3552 
Q 4589 3552 4937 3449 
Q 5286 3347 5481 3222 
Q 5677 3098 5766 2954 
Q 5856 2810 5856 2614 
Q 5856 2419 5734 2278 
Q 5613 2138 5414 2138 
Q 5312 2138 5254 2179 
Q 5197 2221 5145 2365 
Q 5094 2509 5037 2682 
L 4166 2515 
Q 4730 2419 4861 2377 
Q 4992 2336 4992 2272 
Q 4992 2208 4838 2138 
L 4838 378 
Q 4838 243 4880 204 
Q 4922 166 5088 166 
Q 5254 166 5363 227 
Q 5472 288 5574 486 
Q 5677 685 5792 1094 
Q 5824 1197 5837 1197 
Q 5850 1197 5850 1161 
Q 5850 1126 5827 969 
Q 5805 813 5805 649 
Q 5805 486 5849 380 
Q 5894 275 6041 166 
Q 6189 58 6189 -83 
Q 6189 -256 5926 -403 
Q 5664 -550 5139 -550 
Q 4614 -550 4444 -508 
Q 4275 -467 4195 -326 
Q 4115 -186 4115 115 
L 4115 1811 
Q 4115 2221 4096 2502 
Q 3533 2394 3110 2285 
Q 3661 2234 3798 2192 
Q 3936 2150 3936 2108 
Q 3936 2067 3869 2016 
Q 3802 1965 3776 1683 
Q 3731 1165 3593 771 
Q 3456 378 3113 -6 
Q 2771 -390 2121 -534 
Q 1472 -678 1363 -678 
Q 1318 -678 1318 -662 
Q 1318 -646 1382 -621 
Q 1952 -397 2214 -221 
Q 2477 -45 2640 252 
Q 2803 550 2899 1049 
Q 2995 1549 2970 2246 
Q 2835 2208 2780 2185 
Q 2726 2163 2681 2163 
Q 2637 2163 2601 2211 
Q 2566 2259 2470 2540 
Q 2374 2822 2374 2867 
Q 2374 3002 2547 3005 
Q 2720 3008 2835 3075 
Q 2950 3142 3132 3449 
Q 3315 3757 3386 3974 
z
M 224 582 
Q 1190 730 2669 1197 
Q 2688 1203 2726 1203 
Q 2765 1203 2765 1155 
Q 2765 1107 2694 1069 
Q 1600 435 698 -275 
Q 634 -326 598 -326 
Q 563 -326 540 -281 
Q 518 -237 428 -9 
Q 339 218 224 582 
z
" id="STSongti-SC-Black-7edf" transform="scale(0.015625)"/>
       <path d="M 1165 4576 
L 845 4576 
Q 717 4576 614 4506 
L 448 4806 
Q 602 4787 768 4787 
L 3290 4787 
Q 3418 5005 3491 5110 
Q 3565 5216 3609 5216 
Q 3654 5216 3779 5139 
Q 3904 5062 4057 4937 
Q 4211 4813 4252 4765 
Q 4294 4717 4294 4672 
Q 4294 4576 4160 4576 
L 3482 4576 
Q 3443 4512 3366 4486 
L 3366 2950 
L 3955 3008 
Q 4109 3021 4109 2985 
Q 4109 2950 3910 2906 
L 3366 2765 
L 3366 2080 
Q 4211 2253 4845 2496 
Q 5210 2131 5302 2016 
Q 5395 1901 5395 1846 
Q 5395 1792 5318 1792 
Q 5286 1792 5228 1808 
Q 5171 1824 5043 1824 
L 3955 1760 
Q 4147 1306 4480 1005 
Q 4774 1318 4979 1722 
Q 5690 1421 5811 1357 
Q 5933 1293 5933 1248 
Q 5933 1184 5728 1177 
Q 5523 1171 5302 1113 
Q 5082 1056 4621 883 
Q 5184 435 6246 198 
Q 6355 173 6355 150 
Q 6355 128 6188 67 
Q 6022 6 5910 -106 
Q 5798 -218 5658 -486 
Q 5619 -557 5574 -557 
Q 5491 -557 5020 -246 
Q 4550 64 4249 537 
Q 3949 1011 3859 1722 
Q 3846 1690 3795 1651 
L 3795 96 
Q 3795 -115 3808 -352 
L 3814 -570 
Q 3814 -608 3804 -627 
Q 3795 -646 3667 -697 
Q 3539 -749 3331 -771 
Q 3123 -794 3078 -794 
Q 3034 -794 3034 -698 
L 3046 -448 
Q 3053 -192 3053 128 
L 3053 595 
Q 2880 582 2483 301 
Q 2016 -38 1302 -304 
Q 589 -570 307 -570 
Q 262 -570 262 -547 
Q 262 -525 326 -499 
Q 1030 -230 1513 154 
Q 1997 538 2362 1107 
Q 2714 979 3053 781 
L 3053 1709 
Q 2547 1677 2176 1670 
Q 2426 1594 2640 1504 
Q 2854 1414 2883 1388 
Q 2912 1363 2912 1344 
Q 2912 1293 2797 1267 
Q 2560 1222 2080 976 
Q 1600 730 1014 570 
Q 429 410 314 410 
Q 282 410 282 426 
Q 282 442 371 480 
Q 1549 954 2042 1670 
Q 1773 1664 1417 1664 
Q 1062 1664 864 1673 
Q 666 1683 666 1712 
Q 666 1741 755 1747 
Q 1773 1811 2669 1952 
L 2669 2586 
Q 1811 2362 1446 2246 
Q 1082 2131 957 2067 
Q 832 2003 803 2003 
Q 774 2003 752 2044 
Q 730 2086 656 2272 
Q 582 2458 480 2790 
Q 813 2790 1165 2810 
L 1165 4576 
z
M 2669 4576 
L 1952 4576 
Q 1914 4531 1850 4512 
L 1850 4122 
L 2669 4122 
L 2669 4576 
z
M 2669 3910 
L 1850 3910 
L 1850 3437 
L 2669 3437 
L 2669 3910 
z
M 1850 3226 
L 1850 2842 
L 2669 2893 
L 2669 3226 
L 1850 3226 
z
M 4838 3603 
Q 4966 3859 5082 4237 
L 3930 4237 
Q 3802 4237 3699 4166 
L 3526 4467 
Q 3680 4448 3846 4448 
L 5024 4448 
Q 5229 4730 5267 4762 
Q 5306 4794 5357 4794 
Q 5408 4794 5600 4659 
L 5990 4378 
Q 6182 4243 6182 4169 
Q 6182 4096 6054 4073 
Q 5926 4051 5852 3987 
Q 5779 3923 5644 3708 
Q 5510 3494 5382 3341 
Q 5875 3072 6000 2905 
Q 6125 2739 6125 2556 
Q 6125 2374 6016 2252 
Q 5907 2131 5728 2131 
Q 5626 2131 5542 2211 
Q 5459 2291 5360 2476 
Q 5261 2662 4979 2957 
Q 4627 2688 4112 2496 
Q 3597 2304 3539 2304 
Q 3507 2304 3507 2329 
Q 3507 2355 3520 2362 
Q 4256 2739 4640 3270 
Q 4134 3699 3693 3917 
Q 3578 3974 3578 3996 
Q 3578 4019 3610 4019 
Q 3706 4019 4118 3878 
Q 4531 3738 4838 3603 
z
" id="STSongti-SC-Black-805a" transform="scale(0.015625)"/>
       <path d="M 3744 3680 
Q 3974 4294 4134 5075 
Q 4403 4986 4697 4851 
Q 4992 4717 5053 4669 
Q 5114 4621 5114 4576 
Q 5114 4493 4966 4474 
Q 4877 4461 4675 4323 
Q 4474 4186 3827 3680 
L 4954 3680 
Q 5043 3866 5139 4022 
Q 5235 4179 5260 4204 
Q 5286 4230 5318 4230 
Q 5382 4230 5737 3952 
Q 6093 3674 6093 3571 
Q 6093 3469 5914 3469 
L 3469 3469 
L 3469 3437 
Q 5645 3181 5645 2394 
Q 5645 2189 5504 2061 
Q 6208 1542 6208 1376 
Q 6208 1280 6042 1280 
L 3674 1280 
Q 3917 877 4576 585 
Q 5235 294 6074 179 
Q 6189 166 6189 134 
Q 6189 102 6086 77 
Q 5882 32 5699 -141 
Q 5517 -314 5408 -544 
Q 5382 -602 5312 -602 
Q 5184 -602 4710 -314 
Q 4237 -26 3926 377 
Q 3616 781 3526 1280 
L 3360 1280 
Q 3258 870 3091 569 
Q 2925 269 2662 54 
Q 2400 -160 2029 -310 
Q 1658 -461 1069 -582 
Q 480 -704 282 -704 
Q 211 -704 211 -678 
Q 211 -653 333 -614 
Q 1434 -301 1942 140 
Q 2451 582 2573 1280 
L 544 1280 
Q 416 1280 314 1210 
L 147 1510 
Q 301 1491 467 1491 
L 2605 1491 
Q 2637 1792 2630 2042 
Q 3034 2010 3286 1965 
Q 3539 1920 3593 1891 
Q 3648 1862 3648 1817 
Q 3648 1773 3574 1737 
Q 3501 1702 3472 1657 
Q 3443 1613 3411 1491 
L 5011 1491 
Q 5101 1677 5306 1965 
Q 5267 1958 5229 1958 
Q 5043 1958 4832 2288 
Q 4621 2618 4259 2893 
Q 3898 3168 3469 3328 
L 3469 2893 
Q 3469 2682 3482 2451 
L 3488 2240 
Q 3488 2182 3430 2147 
Q 3373 2112 3187 2077 
Q 3002 2042 2867 2042 
Q 2733 2042 2707 2054 
Q 2682 2067 2682 2112 
L 2694 2432 
Q 2701 2637 2701 2950 
L 2701 3168 
Q 2394 2758 1901 2412 
Q 1408 2067 861 1852 
Q 314 1638 173 1638 
Q 141 1638 141 1651 
Q 141 1677 243 1728 
Q 813 2010 1296 2490 
Q 1779 2970 1997 3469 
L 813 3469 
Q 646 3469 538 3437 
L 429 3712 
Q 563 3680 749 3680 
L 2701 3680 
L 2701 4672 
Q 2701 4992 2688 5242 
Q 3597 5248 3597 5101 
Q 3597 5043 3469 4966 
L 3469 3680 
L 3744 3680 
z
M 1242 4915 
Q 1722 4915 2026 4729 
Q 2330 4544 2330 4243 
Q 2330 3763 1875 3763 
Q 1715 3763 1612 3862 
Q 1510 3962 1504 4109 
Q 1498 4627 1190 4813 
Q 1107 4864 1107 4889 
Q 1107 4915 1242 4915 
z
" id="STSongti-SC-Black-7c7b" transform="scale(0.015625)"/>
      </defs>
      <use xlink:href="#STSongti-SC-Black-7cfb"/>
      <use x="99.999985" xlink:href="#STSongti-SC-Black-7edf"/>
      <use x="199.999969" xlink:href="#STSongti-SC-Black-805a"/>
      <use x="299.999954" xlink:href="#STSongti-SC-Black-7c7b"/>
     </g>
    </g>
    <g id="line2d_23">
     <path d="M 70.56 101.2905 
L 99.36 101.2905 
" style="fill:none;stroke:#008000;stroke-linecap:square;stroke-width:1.5;"/>
    </g>
    <g id="line2d_24">
     <g>
      <use style="fill:#008000;stroke:#008000;stroke-linejoin:bevel;" x="84.96" xlink:href="#m3367622387" y="101.2905"/>
     </g>
    </g>
    <g id="text_20">
     <!-- 贝叶斯玫瑰树 -->
     <g transform="translate(110.88 106.3305)scale(0.144 -0.144)">
      <defs>
       <path d="M 2029 4819 
L 4435 4819 
Q 4461 4858 4553 5027 
Q 4646 5197 4688 5241 
Q 4730 5286 4813 5286 
Q 4896 5286 5133 5126 
L 5530 4858 
Q 5683 4749 5683 4653 
Q 5683 4557 5421 4474 
L 5421 1869 
Q 5421 1568 5427 1453 
L 5434 1235 
Q 5434 1178 5366 1133 
Q 5299 1088 5004 1021 
Q 4710 954 4608 954 
Q 4550 954 4550 1062 
L 4550 4608 
L 2048 4608 
Q 2029 4563 1958 4525 
L 1958 1114 
Q 1958 1056 1932 1027 
Q 1907 998 1795 963 
Q 1683 928 1452 889 
Q 1222 851 1152 851 
Q 1114 851 1114 902 
L 1126 1203 
Q 1139 1517 1139 1773 
L 1139 4403 
Q 1139 4890 1126 5197 
Q 1677 5069 2029 4819 
z
M 3386 966 
Q 3123 397 2620 51 
Q 2118 -294 1510 -454 
Q 902 -614 749 -614 
Q 685 -614 685 -582 
Q 685 -550 781 -512 
Q 1459 -230 1910 112 
Q 2362 454 2547 764 
Q 2733 1075 2803 1494 
Q 2874 1914 2874 2605 
Q 2874 3296 2861 4109 
Q 3194 4109 3475 4080 
Q 3757 4051 3827 4019 
Q 3898 3987 3898 3932 
Q 3898 3878 3802 3840 
Q 3770 3827 3757 3769 
Q 3744 3712 3738 3546 
Q 3706 2496 3642 1965 
Q 3578 1434 3443 1101 
Q 4582 966 5129 617 
Q 5677 269 5677 -83 
Q 5677 -294 5481 -467 
Q 5286 -640 5024 -640 
Q 4915 -640 4854 -595 
Q 4794 -550 4749 -435 
Q 4429 416 3386 966 
z
" id="STSongti-SC-Black-8d1d" transform="scale(0.015625)"/>
       <path d="M 2746 3053 
Q 2848 3040 2989 3040 
L 3866 3040 
L 3866 4691 
Q 3866 5011 3853 5261 
Q 4237 5235 4563 5164 
Q 4890 5094 4890 5014 
Q 4890 4934 4666 4877 
L 4666 3040 
L 5094 3040 
Q 5267 3341 5360 3469 
Q 5453 3597 5504 3597 
Q 5587 3597 5916 3286 
Q 6246 2976 6246 2886 
Q 6246 2829 6125 2829 
L 4666 2829 
L 4666 237 
Q 4666 26 4672 -211 
L 4685 -429 
Q 4685 -525 4627 -563 
Q 4570 -602 4429 -650 
Q 4288 -698 4096 -698 
Q 3904 -698 3875 -682 
Q 3846 -666 3846 -582 
L 3859 -211 
Q 3866 13 3866 269 
L 3866 2829 
L 3066 2829 
Q 2938 2829 2835 2758 
L 2746 2918 
L 2746 1683 
Q 2746 1389 2752 1280 
L 2758 1075 
Q 2758 1018 2716 970 
Q 2675 922 2505 864 
Q 2336 806 2192 806 
Q 2048 806 2022 828 
Q 1997 851 1997 922 
L 1997 1325 
L 1370 1325 
L 1370 794 
Q 1370 730 1341 691 
Q 1312 653 1139 582 
Q 966 512 803 512 
Q 640 512 617 531 
Q 595 550 595 602 
L 608 838 
Q 621 1075 621 1446 
L 621 3872 
Q 621 4262 608 4538 
Q 1133 4358 1453 4198 
L 1843 4198 
Q 1862 4230 1961 4377 
Q 2061 4525 2089 4557 
Q 2118 4589 2150 4589 
Q 2214 4589 2512 4422 
Q 2810 4256 2896 4195 
Q 2982 4134 2982 4077 
Q 2982 3981 2746 3917 
L 2746 3053 
z
M 1997 1536 
L 1997 3987 
L 1440 3987 
Q 1414 3962 1370 3942 
L 1370 1536 
L 1997 1536 
z
" id="STSongti-SC-Black-53f6" transform="scale(0.015625)"/>
       <path d="M 4250 4410 
Q 4806 4653 5427 5216 
Q 5587 5082 5833 4845 
Q 6080 4608 6115 4557 
Q 6150 4506 6150 4467 
Q 6150 4397 6035 4397 
L 5856 4410 
Q 5402 4410 5002 4352 
Q 4602 4294 4397 4275 
Q 4314 4179 4314 4026 
L 4288 3136 
L 5139 3136 
Q 5190 3232 5283 3373 
Q 5376 3514 5414 3568 
Q 5453 3622 5491 3622 
Q 5568 3622 5891 3340 
Q 6214 3059 6214 2992 
Q 6214 2925 6112 2925 
L 5549 2925 
Q 5536 2854 5459 2816 
L 5459 -58 
L 5472 -474 
Q 5472 -538 5433 -582 
Q 5395 -627 5225 -675 
Q 5056 -723 4912 -723 
Q 4768 -723 4742 -713 
Q 4717 -704 4701 -662 
Q 4685 -621 4685 -538 
L 4685 2925 
L 4282 2925 
Q 4250 1869 4186 1379 
Q 4122 890 3974 531 
Q 3827 173 3545 -102 
Q 3264 -378 2886 -554 
Q 2509 -730 2451 -730 
Q 2426 -730 2426 -710 
Q 2426 -691 2490 -640 
Q 3110 -141 3299 265 
Q 3488 672 3533 1280 
L 486 1280 
Q 358 1280 256 1210 
L 90 1510 
Q 243 1491 410 1491 
L 819 1491 
L 819 3936 
L 544 3936 
Q 416 3936 314 3866 
L 147 4166 
Q 301 4147 467 4147 
L 819 4147 
L 819 4518 
Q 819 4838 806 5088 
Q 1082 5082 1306 5043 
Q 1530 5005 1597 4973 
Q 1664 4941 1664 4893 
Q 1664 4845 1536 4781 
L 1536 4147 
L 2182 4147 
L 2182 4531 
Q 2182 4851 2170 5101 
Q 2445 5094 2649 5065 
Q 2854 5037 2937 5005 
Q 3021 4973 3021 4918 
Q 3021 4864 2899 4800 
L 2899 4147 
Q 3046 4416 3081 4464 
Q 3117 4512 3155 4512 
Q 3194 4512 3325 4393 
Q 3456 4275 3558 4147 
L 3539 4678 
Q 3962 4525 4250 4410 
z
M 2182 3936 
L 1536 3936 
L 1536 3258 
L 2182 3258 
L 2182 3936 
z
M 3565 3936 
L 2899 3936 
L 2899 1504 
Q 3078 1888 3155 1888 
Q 3232 1888 3552 1594 
Q 3578 2080 3578 2720 
Q 3578 3360 3565 3936 
z
M 2182 2400 
L 2182 3046 
L 1536 3046 
L 1536 2400 
L 2182 2400 
z
M 2182 1491 
L 2182 2189 
L 1536 2189 
L 1536 1491 
L 2182 1491 
z
M 1114 1203 
Q 1331 1114 1568 982 
Q 1805 851 1869 790 
Q 1933 730 1933 685 
Q 1933 621 1837 614 
Q 1741 608 1670 566 
Q 1600 525 1315 278 
Q 1030 32 624 -243 
Q 218 -518 141 -518 
Q 115 -518 115 -489 
Q 115 -461 160 -416 
Q 794 294 1114 1203 
z
M 1926 1158 
Q 2061 1158 2403 1049 
Q 2746 941 2896 832 
Q 3046 723 3094 595 
Q 3142 467 3142 288 
Q 3142 -128 2669 -128 
Q 2579 -128 2505 -38 
Q 2432 51 2413 192 
Q 2362 576 2262 736 
Q 2163 896 2028 1008 
Q 1894 1120 1894 1139 
Q 1894 1158 1926 1158 
z
" id="STSongti-SC-Black-65af" transform="scale(0.015625)"/>
       <path d="M 1152 4115 
L 576 4115 
Q 448 4115 346 4045 
L 179 4346 
Q 333 4326 499 4326 
L 1882 4326 
Q 2099 4691 2137 4739 
Q 2176 4787 2214 4787 
Q 2310 4787 2640 4524 
Q 2970 4262 2970 4173 
Q 2970 4115 2854 4115 
L 1978 4115 
Q 1946 4058 1869 4026 
L 1869 2778 
L 1926 2778 
Q 2048 3021 2099 3088 
Q 2150 3155 2204 3155 
Q 2259 3155 2464 2992 
Q 2669 2829 2758 2726 
Q 3270 3744 3443 5267 
Q 3808 5178 4115 5062 
Q 4422 4947 4473 4915 
Q 4525 4883 4525 4832 
Q 4525 4781 4397 4742 
Q 4339 4723 4291 4656 
Q 4243 4589 4108 4329 
Q 3974 4070 3706 3590 
L 4909 3590 
Q 5094 3949 5161 4035 
Q 5229 4122 5283 4122 
Q 5338 4122 5475 4035 
Q 5613 3949 5821 3779 
Q 6029 3610 6077 3549 
Q 6125 3488 6125 3450 
Q 6125 3379 6003 3379 
L 5126 3379 
Q 5402 3302 5507 3254 
Q 5613 3206 5613 3152 
Q 5613 3098 5498 3053 
Q 5440 3027 5401 2947 
Q 5363 2867 5280 2605 
Q 4922 1459 4595 992 
Q 5114 563 6106 134 
Q 6221 83 6221 51 
Q 6221 19 6080 -13 
Q 5939 -45 5740 -211 
Q 5542 -378 5456 -512 
Q 5370 -646 5334 -646 
Q 5299 -646 5244 -611 
Q 5190 -576 4787 -230 
Q 4384 115 4109 454 
Q 3686 83 3177 -153 
Q 2669 -390 2169 -512 
Q 1670 -634 1587 -634 
Q 1504 -634 1504 -608 
Q 1504 -582 1619 -544 
Q 2304 -301 2883 76 
Q 3462 454 3802 896 
Q 3341 1664 3309 2963 
Q 3002 2534 2691 2224 
Q 2381 1914 2304 1914 
Q 2285 1914 2285 1933 
Q 2285 1971 2406 2134 
Q 2528 2298 2682 2566 
L 1869 2566 
L 1869 1101 
L 2861 1267 
Q 2899 1267 2899 1244 
Q 2899 1222 2790 1171 
Q 2131 858 1481 515 
Q 832 173 691 89 
Q 550 6 528 6 
Q 506 6 486 28 
Q 467 51 352 323 
Q 237 595 154 870 
Q 1088 986 1152 998 
L 1152 2566 
L 672 2566 
Q 544 2566 442 2496 
L 275 2797 
Q 429 2778 595 2778 
L 1152 2778 
L 1152 4115 
z
M 4576 3379 
L 3578 3379 
Q 3539 3309 3456 3181 
Q 3603 2118 4134 1453 
Q 4429 2010 4576 3379 
z
" id="STSongti-SC-Black-73ab" transform="scale(0.015625)"/>
       <path d="M 3245 4358 
Q 3302 4570 3290 5248 
Q 3718 5190 4019 5132 
Q 4320 5075 4355 5052 
Q 4390 5030 4390 4985 
Q 4390 4941 4240 4896 
Q 4090 4851 3539 4358 
L 4794 4358 
Q 4922 4608 4976 4678 
Q 5030 4749 5094 4749 
Q 5146 4749 5414 4601 
Q 5683 4454 5811 4355 
Q 5939 4256 5939 4186 
Q 5939 4070 5709 4013 
L 5709 2790 
L 5722 2227 
Q 5722 2163 5680 2128 
Q 5638 2093 5504 2045 
Q 5370 1997 5101 1997 
Q 4992 1997 4966 2019 
Q 4941 2042 4941 2112 
L 4122 2112 
L 4083 1984 
Q 4410 1914 4464 1888 
Q 4518 1862 4518 1811 
Q 4518 1760 4403 1702 
L 4403 915 
Q 4589 992 4768 1920 
Q 5005 1869 5225 1808 
Q 5446 1747 5472 1724 
Q 5498 1702 5498 1660 
Q 5498 1619 5392 1596 
Q 5286 1574 5120 1389 
Q 5440 1229 5593 1104 
Q 5747 979 5754 819 
Q 5786 941 5805 1030 
Q 5824 1120 5837 1120 
Q 5850 1120 5850 1075 
L 5837 698 
Q 5837 390 5894 249 
Q 5952 109 6118 45 
Q 6208 6 6208 -90 
Q 6208 -186 6077 -333 
Q 5946 -480 5686 -541 
Q 5427 -602 4844 -602 
Q 4262 -602 4009 -483 
Q 3757 -365 3757 -13 
L 3757 1101 
Q 3462 518 2985 172 
Q 2509 -173 1865 -374 
Q 1222 -576 1107 -576 
Q 1062 -576 1062 -557 
Q 1062 -525 1203 -467 
Q 2240 -45 2752 560 
Q 3264 1165 3456 2112 
L 3034 2112 
L 3034 1997 
Q 3034 1946 2992 1910 
Q 2950 1875 2745 1817 
Q 2541 1760 2381 1760 
Q 2323 1760 2330 1830 
Q 2355 2157 2355 2464 
L 1587 2464 
L 1587 1126 
L 2842 1325 
Q 2899 1325 2899 1293 
Q 2899 1261 2784 1216 
Q 2195 1005 1507 665 
Q 819 326 448 83 
Q 390 45 358 45 
Q 326 45 310 77 
Q 294 109 220 371 
Q 147 634 77 934 
L 858 1024 
L 858 2464 
L 557 2464 
Q 429 2464 326 2394 
L 160 2694 
Q 314 2675 480 2675 
L 858 2675 
L 858 4134 
L 499 4134 
Q 371 4134 269 4064 
L 102 4365 
Q 256 4346 422 4346 
L 1510 4346 
Q 1696 4659 1731 4710 
Q 1766 4762 1811 4762 
Q 1901 4762 2355 4365 
L 2336 4582 
Q 2669 4486 3040 4358 
L 3245 4358 
z
M 3629 4147 
L 3130 4147 
Q 3091 4109 3034 4090 
L 3034 3360 
L 3590 3360 
Q 3610 3629 3629 4147 
z
M 4941 3360 
L 4941 4147 
L 4531 4147 
Q 4429 4083 4419 3920 
Q 4410 3757 4365 3360 
L 4941 3360 
z
M 2355 4134 
L 1658 4134 
Q 1606 4096 1587 4090 
L 1587 2688 
Q 1722 2944 1770 3008 
Q 1818 3072 1856 3072 
Q 1952 3072 2355 2688 
L 2355 4134 
z
M 3578 3149 
L 3034 3149 
L 3034 2323 
L 3494 2323 
Q 3533 2534 3578 3149 
z
M 4941 2323 
L 4941 3149 
L 4339 3149 
Q 4288 2758 4179 2323 
L 4941 2323 
z
M 5062 1318 
Q 4954 1190 4742 922 
L 5210 986 
Q 5171 1152 5062 1318 
z
M 5235 762 
Q 4838 550 4672 371 
Q 4640 333 4605 333 
Q 4570 333 4544 390 
L 4403 685 
L 4403 275 
Q 4403 122 4512 61 
Q 4621 0 4934 0 
Q 5248 0 5408 96 
Q 5568 192 5677 518 
Q 5581 416 5465 416 
Q 5350 416 5302 480 
Q 5254 544 5235 762 
z
" id="STSongti-SC-Black-7470" transform="scale(0.015625)"/>
       <path d="M 832 3610 
L 480 3610 
Q 352 3610 250 3539 
L 83 3840 
Q 237 3821 403 3821 
L 947 3821 
L 947 4499 
Q 947 4922 928 5229 
Q 1146 5222 1424 5190 
Q 1702 5158 1753 5129 
Q 1805 5101 1805 5062 
Q 1805 4979 1613 4902 
L 1613 3821 
L 1690 3821 
Q 1747 3923 1852 4073 
Q 1958 4224 1980 4246 
Q 2003 4269 2038 4269 
Q 2074 4269 2118 4237 
L 3104 4237 
Q 3238 4480 3289 4541 
Q 3341 4602 3379 4602 
Q 3450 4602 3808 4400 
Q 4166 4198 4166 4131 
Q 4166 4064 4064 4025 
Q 3962 3987 3920 3884 
Q 3878 3782 3846 3635 
Q 3910 3629 4026 3629 
L 4755 3629 
L 4755 4480 
Q 4755 4947 4742 5254 
Q 5331 5242 5481 5203 
Q 5632 5165 5632 5107 
Q 5632 5050 5491 4979 
L 5491 3629 
Q 5658 3904 5702 3984 
Q 5747 4064 5801 4064 
Q 5856 4064 6054 3814 
Q 6253 3565 6253 3491 
Q 6253 3418 6125 3418 
L 5491 3418 
L 5491 19 
Q 5491 -275 5385 -396 
Q 5280 -518 5017 -582 
Q 4755 -646 4620 -646 
Q 4486 -646 4474 -461 
Q 4454 -205 4294 -96 
Q 4134 13 3795 70 
Q 3686 90 3686 115 
Q 3686 141 3782 141 
L 4237 128 
Q 4480 128 4589 160 
Q 4698 192 4726 262 
Q 4755 333 4755 480 
L 4755 3418 
L 4102 3418 
Q 3974 3418 3872 3347 
L 3808 3456 
Q 3674 2784 3437 2278 
Q 3962 1581 3962 1114 
Q 3962 890 3834 739 
Q 3706 589 3539 589 
Q 3187 589 3187 1024 
Q 3187 1370 3110 1690 
Q 2592 922 1613 294 
L 1613 -435 
Q 1613 -512 1581 -541 
Q 1549 -570 1395 -611 
Q 1242 -653 1107 -653 
Q 973 -653 950 -640 
Q 928 -627 928 -576 
L 934 -314 
Q 947 -45 947 282 
L 947 2067 
Q 794 1664 493 1280 
Q 192 896 141 896 
Q 128 896 128 918 
Q 128 941 173 1011 
Q 640 1805 832 3610 
z
M 2381 4026 
Q 2669 3776 2669 3693 
Q 2669 3610 2515 3610 
L 1613 3610 
L 1613 3098 
Q 2554 2822 2554 2298 
Q 2554 2106 2435 1971 
Q 2317 1837 2157 1837 
Q 1997 1837 1917 1933 
Q 1837 2029 1850 2189 
Q 1856 2253 1856 2317 
Q 1856 2765 1613 2989 
L 1613 384 
Q 2541 1286 2867 2387 
Q 2682 2803 2304 3366 
Q 2266 3424 2266 3446 
Q 2266 3469 2282 3469 
Q 2298 3469 2333 3446 
Q 2368 3424 2592 3213 
Q 2816 3002 2982 2816 
Q 3117 3379 3168 4026 
L 2381 4026 
z
M 3757 2893 
Q 3872 2893 4166 2790 
Q 4461 2688 4582 2502 
Q 4704 2317 4704 2112 
Q 4704 1907 4576 1795 
Q 4448 1683 4301 1683 
Q 4154 1683 4064 1788 
Q 3974 1894 4000 2067 
Q 4013 2150 4013 2265 
Q 4013 2381 3958 2509 
Q 3904 2637 3814 2742 
Q 3725 2848 3725 2870 
Q 3725 2893 3757 2893 
z
" id="STSongti-SC-Black-6811" transform="scale(0.015625)"/>
      </defs>
      <use xlink:href="#STSongti-SC-Black-8d1d"/>
      <use x="99.999985" xlink:href="#STSongti-SC-Black-53f6"/>
      <use x="199.999969" xlink:href="#STSongti-SC-Black-65af"/>
      <use x="299.999954" xlink:href="#STSongti-SC-Black-73ab"/>
      <use x="399.999939" xlink:href="#STSongti-SC-Black-7470"/>
      <use x="499.999924" xlink:href="#STSongti-SC-Black-6811"/>
     </g>
    </g>
   </g>
  </g>
 </g>
 <defs>
  <clipPath id="p222585cdd9">
   <rect height="266.112" width="357.12" x="57.6" y="41.472"/>
  </clipPath>
 </defs>
</svg>
